<svg  viewBox="0 0 24 24" fill="currentColor" xmlns="http://www.w3.org/2000/svg">
<path fill-rule="evenodd" clip-rule="evenodd" d="M9.5 15C12.5376 15 15 12.5376 15 9.5C15 6.46243 12.5376 4 9.5 4C6.46243 4 4 6.46243 4 9.5C4 12.5376 6.46243 15 9.5 15ZM9.5 17C13.6421 17 17 13.6421 17 9.5C17 5.35786 13.6421 2 9.5 2C5.35786 2 2 5.35786 2 9.5C2 13.6421 5.35786 17 9.5 17Z" fill="currentColor"/>
<path d="M13.7071 13.7071C14.0976 13.3166 14.7308 13.3166 15.1213 13.7071L20.7781 19.364C21.1687 19.7545 21.1687 20.3877 20.7781 20.7782V20.7782C20.3876 21.1687 19.7545 21.1687 19.3639 20.7782L13.7071 15.1213C13.3166 14.7308 13.3166 14.0976 13.7071 13.7071V13.7071Z" fill="currentColor"/>
</svg>
