<svg width="212" height="239" viewBox="0 0 212 239" fill="none" xmlns="http://www.w3.org/2000/svg">
<path d="M161 9.99999C143.4 2.79999 137.667 37.6667 137 56L152 62C162.333 47.6667 178.6 17.2 161 9.99999Z" fill="#F6C8C8" stroke="black"/>
<path d="M211 238.908C211 220.271 174.216 220.13 156.088 219L145 249.073L186.184 257.545C194.456 259.098 211 257.545 211 238.908Z" fill="#F6C8C8" stroke="black"/>
<path d="M12.5 166.5L7 171L7.5 175L12.5 166.5Z" fill="#D9D9D9" stroke="black"/>
<path d="M191.5 234.5C189.904 221.73 188.5 222 183.951 222.45L178 231.115L179.984 243.825C184.117 249.409 194 254.5 191.5 234.5Z" fill="#DFADAD"/>
<path d="M91.5 38C78.5 38 66.7882 42.8051 43 53C36 56 14.1407 71 9.5 113.5C8.79443 119.962 6.21672 152.562 9.50001 178.5L63 286C100.333 285 176.6 282.5 183 280.5C189.4 278.5 186.167 257.667 183.5 245C185.667 247.333 187.655 215.5 183 136C178.345 56.5 154.5 43 113 39L125.5 26.5L101.5 38L108.5 22C108.5 22 95 30.5 91.5 38Z" fill="#F9DBDB" stroke="black"/>
<path d="M153 207.5C136.2 207.5 48.6667 183.5 7 171.5C7 216.5 5.66667 221.5 11 240.5L1.5 275.5L191 294L185.5 191.5C177.333 197 159.4 207.5 153 207.5Z" fill="white" stroke="black"/>
<path d="M54 206C50.5 200 34 184.5 33 179L73 192L135 209.5L77 215.5C77 193 65.5 198.5 54 206Z" fill="#E4E4E4"/>
<path d="M128.5 244C127.3 226.4 103 225.333 91 227L79.5 250L93.5 263.5C105.667 264.333 129.7 261.6 128.5 244Z" fill="#F6C8C8" stroke="black"/>
<path d="M103 239.5C104.19 222.862 99.7537 224.122 95.9514 225.277L90 233.943L91.9838 246.652C96.1168 252.237 101.81 256.138 103 239.5Z" fill="#DFADAD"/>
<path d="M174.5 209.5L158 208L168.5 202.5L178.5 196L185.5 192L184.5 201C184.5 201 183.6 199 180 199C176.4 199 174.333 206.5 174.5 209.5Z" fill="#E4E4E4"/>
<path d="M78.5 223C66.9 223 62.6667 236.667 62 241L65 249.5L98 247.5C98 247.5 104 225 101 223C98 221 90.1 223 78.5 223Z" fill="white" stroke="black"/>
<path d="M56 201.5L32.5 179C67.3333 186.333 150.2 205.2 153 208C153 208 163.295 202.387 170 199C176.002 195.968 185.5 191 185.5 191L184 199C179 194 173.5 202 173.5 208H153L80 211.5C80 198.5 70.5 191.5 56 201.5Z" fill="white"/>
<path d="M153 208L80 211.5C80 198.5 70.5 191.5 56 201.5L32.5 179C67.3333 186.333 150.2 205.2 153 208ZM153 208H173.5C173.5 202 179 194 184 199L185.5 191C185.5 191 176.002 195.968 170 199C163.295 202.387 153 208 153 208Z" stroke="black"/>
<circle cx="154" cy="213" r="2.5" fill="#FFFEFE" stroke="black"/>
<circle cx="156" cy="226" r="2.5" fill="#FFFEFE" stroke="black"/>
<circle cx="157" cy="239" r="2.5" fill="#FFFEFE" stroke="black"/>
<path d="M61.5 54.5C55.9312 63.5 45 61.5 42.5 61.5C38.5 54.5 31.7896 31.5534 31 28C28 14.5 28.2414 3.9576 37.7414 1.4576C47.2414 -1.0424 52.6675 7.33504 54.5 11C56 14 61.1667 41.3333 61.5 54.5Z" fill="#F9DBDB" stroke="black"/>
<path d="M52.5 61C51.8333 55.5 51.7 43.2 56.5 38" stroke="black"/>
<path d="M40 39C43.8333 41.6667 51.6 49.7 52 60.5" stroke="black"/>
<path d="M149.211 49.154C151.467 44.0938 152.699 38.9925 159.489 37" stroke="black"/>
<path d="M151.489 29C152.511 32.209 153.451 40.5953 149.039 48.4681" stroke="black"/>
<path d="M127.292 169.44C117.812 166.064 121.677 156.209 122.331 150.03C130.403 147.596 144.733 143.904 149.445 147.498C155.335 151.992 150.5 168 147.637 169.018C144.774 170.035 135.242 172.27 127.292 169.44Z" fill="url(#paint0_linear_35_207)" stroke="black"/>
<path d="M107 142.5C107 134.9 118.333 132.667 124 132.5C125.833 131.833 131.213 130.924 138 130.5C154 129.5 156.566 136.527 157 140C157.5 144 156.5 148 150.5 149C146.554 149.658 144 147 136 147.5C132.008 147.75 129 151.5 124 151.5C118.333 151.667 107 150.1 107 142.5Z" fill="#F6C8C8" stroke="black"/>
<path d="M139 147.5C140.5 151 142.5 162 138.5 170.5" stroke="black"/>
<path d="M190.5 108C190.5 124.292 177.292 137.5 161 137.5C152.867 137.5 146.765 134.211 142.683 128.908C138.589 123.589 136.5 116.207 136.5 108C136.5 99.7934 138.589 92.4105 142.683 87.0918C146.765 81.7885 152.867 78.5 161 78.5C177.292 78.5 190.5 91.7076 190.5 108Z" fill="white" stroke="black"/>
<path d="M186.5 108C186.5 122.083 175.083 133.5 161 133.5C153.973 133.5 148.746 130.66 145.263 126.082C141.767 121.488 140 115.104 140 108C140 100.896 141.767 94.5123 145.263 89.918C148.746 85.3402 153.973 82.5 161 82.5C175.083 82.5 186.5 93.9167 186.5 108Z" fill="white" stroke="black"/>
<path d="M149 134C149 137.866 145.813 141 137.829 141C129.844 141 126 137.866 126 134C126 130.134 129.844 127 137.829 127C145.813 127 149 130.134 149 134Z" fill="#1C1919"/>
<path d="M91 79.6033H91.0197L91.0394 79.6017C109.755 78.1242 125.5 92.9517 125.5 110.603C125.5 128.297 112.153 142.603 94.5 142.603C76.8071 142.603 61.5 128.257 61.5 110.603C61.5 92.8971 73.3588 79.6033 91 79.6033Z" fill="white" stroke="black"/>
<path d="M123.5 110.603C123.5 126.067 109.964 139.603 94.5 139.603C79.0581 139.603 66.5 126.09 66.5 110.603C66.5 95.0647 76.6051 82.1033 92 82.1033C109.765 82.1033 123.5 95.1784 123.5 110.603Z" fill="white" stroke="black"/>
<path d="M125.5 112C125.667 109.833 135 108 136.5 111.5" stroke="black"/>
<circle cx="182" cy="109" r="2" fill="white"/>
<mask id="mask0_35_207" style="mask-type:alpha" maskUnits="userSpaceOnUse" x="66" y="81" width="58" height="60">
<path d="M123.5 110.603C123.5 126.067 109.964 139.603 94.5 139.603C79.0581 139.603 66.5 126.09 66.5 110.603C66.5 95.0647 76.6051 82.1033 92 82.1033C109.765 82.1033 123.5 95.1784 123.5 110.603Z" fill="white" stroke="black"/>
</mask>
<g mask="url(#mask0_35_207)">
<path d="M87.5 138.5C54.7 114.1 72.8333 91.3333 86 83L80 73L47.5 93.5V145L87.5 138.5Z" fill="black" fill-opacity="0.3"/>
</g>
<mask id="mask1_35_207" style="mask-type:alpha" maskUnits="userSpaceOnUse" x="139" y="82" width="48" height="52">
<path d="M186.5 108C186.5 122.083 175.083 133.5 161 133.5C153.973 133.5 148.746 130.66 145.263 126.082C141.767 121.488 140 115.104 140 108C140 100.896 141.767 94.5123 145.263 89.918C148.746 85.3402 153.973 82.5 161 82.5C175.083 82.5 186.5 93.9167 186.5 108Z" fill="white" stroke="black"/>
</mask>
<g mask="url(#mask1_35_207)">
<path d="M162 137.5C129.2 113.1 147.333 90.3333 160.5 82L154.5 72L122 92.5V144L162 137.5Z" fill="black" fill-opacity="0.3"/>
</g>
<path d="M125 154C125 153.448 125.448 153 126 153C126.552 153 127 153.448 127 154V159C127 159.552 126.552 160 126 160C125.448 160 125 159.552 125 159V154Z" fill="white"/>
<circle cx="126" cy="162" r="1" fill="white"/>
<mask id="mask2_35_207" style="mask-type:alpha" maskUnits="userSpaceOnUse" x="0" y="0" width="212" height="295">
<path d="M161 9.99999C143.4 2.79999 137.667 37.6667 137 56L152 62C162.333 47.6667 178.6 17.2 161 9.99999Z" fill="#F6C8C8" stroke="black"/>
<path d="M211 238.908C211 220.271 174.216 220.13 156.088 219L145 249.073L186.184 257.545C194.456 259.098 211 257.545 211 238.908Z" fill="#F6C8C8" stroke="black"/>
<path d="M12.5 166.5L7 171L7.5 175L12.5 166.5Z" fill="#D9D9D9" stroke="black"/>
<path d="M191.5 234.5C189.904 221.73 188.5 222 183.951 222.45L178 231.115L179.984 243.825C184.117 249.409 194 254.5 191.5 234.5Z" fill="#DFADAD"/>
<path d="M91.5 38C78.5 38 66.7882 42.8051 43 53C36 56 14.1407 71 9.5 113.5C8.79443 119.962 6.21672 152.562 9.50001 178.5L63 286C100.333 285 176.6 282.5 183 280.5C189.4 278.5 186.167 257.667 183.5 245C185.667 247.333 187.655 215.5 183 136C178.345 56.5 154.5 43 113 39L125.5 26.5L101.5 38L108.5 22C108.5 22 95 30.5 91.5 38Z" fill="#F9DBDB" stroke="black"/>
<path d="M153 207.5C136.2 207.5 48.6667 183.5 7 171.5C7 216.5 5.66667 221.5 11 240.5L1.5 275.5L191 294L185.5 191.5C177.333 197 159.4 207.5 153 207.5Z" fill="white" stroke="black"/>
<path d="M54 206C50.5 200 34 184.5 33 179L73 192L135 209.5L77 215.5C77 193 65.5 198.5 54 206Z" fill="#E4E4E4"/>
<path d="M128.5 244C127.3 226.4 103 225.333 91 227L79.5 250L93.5 263.5C105.667 264.333 129.7 261.6 128.5 244Z" fill="#F6C8C8" stroke="black"/>
<path d="M103 239.5C104.19 222.862 99.7537 224.122 95.9514 225.277L90 233.943L91.9838 246.652C96.1168 252.237 101.81 256.138 103 239.5Z" fill="#DFADAD"/>
<path d="M174.5 209.5L158 208L168.5 202.5L178.5 196L185.5 192L184.5 201C184.5 201 183.6 199 180 199C176.4 199 174.333 206.5 174.5 209.5Z" fill="#E4E4E4"/>
<path d="M78.5 223C66.9 223 62.6667 236.667 62 241L65 249.5L98 247.5C98 247.5 104 225 101 223C98 221 90.1 223 78.5 223Z" fill="white" stroke="black"/>
<path d="M56 201.5L32.5 179C67.3333 186.333 150.2 205.2 153 208C153 208 163.295 202.387 170 199C176.002 195.968 185.5 191 185.5 191L184 199C179 194 173.5 202 173.5 208H153L80 211.5C80 198.5 70.5 191.5 56 201.5Z" fill="white"/>
<path d="M153 208L80 211.5C80 198.5 70.5 191.5 56 201.5L32.5 179C67.3333 186.333 150.2 205.2 153 208ZM153 208H173.5C173.5 202 179 194 184 199L185.5 191C185.5 191 176.002 195.968 170 199C163.295 202.387 153 208 153 208Z" stroke="black"/>
<circle cx="154" cy="213" r="2.5" fill="#FFFEFE" stroke="black"/>
<circle cx="156" cy="226" r="2.5" fill="#FFFEFE" stroke="black"/>
<circle cx="157" cy="239" r="2.5" fill="#FFFEFE" stroke="black"/>
<path d="M61.5 54.5C55.9312 63.5 45 61.5 42.5 61.5C38.5 54.5 31.7896 31.5534 31 28C28 14.5 28.2414 3.9576 37.7414 1.4576C47.2414 -1.0424 52.6675 7.33504 54.5 11C56 14 61.1667 41.3333 61.5 54.5Z" fill="#F9DBDB" stroke="black"/>
<path d="M52.5 61C51.8333 55.5 51.7 43.2 56.5 38" stroke="black"/>
<path d="M40 39C43.8333 41.6667 51.6 49.7 52 60.5" stroke="black"/>
<path d="M149.211 49.154C151.467 44.0938 152.699 38.9925 159.489 37" stroke="black"/>
<path d="M151.489 29C152.511 32.209 153.451 40.5953 149.039 48.4681" stroke="black"/>
<path d="M127.292 169.44C117.812 166.064 121.677 156.209 122.331 150.03C130.403 147.596 144.733 143.904 149.445 147.498C155.335 151.992 150.5 168 147.637 169.018C144.774 170.035 135.242 172.27 127.292 169.44Z" fill="url(#paint1_linear_35_207)" stroke="black"/>
<path d="M107 142.5C107 134.9 118.333 132.667 124 132.5C125.833 131.833 131.213 130.924 138 130.5C154 129.5 156.566 136.527 157 140C157.5 144 156.5 148 150.5 149C146.554 149.658 144 147 136 147.5C132.008 147.75 129 151.5 124 151.5C118.333 151.667 107 150.1 107 142.5Z" fill="#F6C8C8" stroke="black"/>
<path d="M139 147.5C140.5 151 142.5 162 138.5 170.5" stroke="black"/>
<path d="M190.5 108C190.5 124.292 177.292 137.5 161 137.5C152.867 137.5 146.765 134.211 142.683 128.908C138.589 123.589 136.5 116.207 136.5 108C136.5 99.7934 138.589 92.4105 142.683 87.0918C146.765 81.7885 152.867 78.5 161 78.5C177.292 78.5 190.5 91.7076 190.5 108Z" fill="white" stroke="black"/>
<path d="M186.5 108C186.5 122.083 175.083 133.5 161 133.5C153.973 133.5 148.746 130.66 145.263 126.082C141.767 121.488 140 115.104 140 108C140 100.896 141.767 94.5123 145.263 89.918C148.746 85.3402 153.973 82.5 161 82.5C175.083 82.5 186.5 93.9167 186.5 108Z" fill="white" stroke="black"/>
<path d="M149 134C149 137.866 145.813 141 137.829 141C129.844 141 126 137.866 126 134C126 130.134 129.844 127 137.829 127C145.813 127 149 130.134 149 134Z" fill="#1C1919"/>
<path d="M91 79.6033H91.0197L91.0394 79.6017C109.755 78.1242 125.5 92.9517 125.5 110.603C125.5 128.297 112.153 142.603 94.5 142.603C76.8071 142.603 61.5 128.257 61.5 110.603C61.5 92.8971 73.3588 79.6033 91 79.6033Z" fill="white" stroke="black"/>
<path d="M123.5 110.603C123.5 126.067 109.964 139.603 94.5 139.603C79.0581 139.603 66.5 126.09 66.5 110.603C66.5 95.0647 76.6051 82.1033 92 82.1033C109.765 82.1033 123.5 95.1784 123.5 110.603Z" fill="white" stroke="black"/>
<path d="M125.5 112C125.667 109.833 135 108 136.5 111.5" stroke="black"/>
<circle cx="182" cy="109" r="2" fill="white"/>
<circle cx="113.603" cy="111.603" r="7.60327" fill="black"/>
<circle cx="117.534" cy="109.534" r="2.53442" fill="white"/>
<circle cx="177.603" cy="109.603" r="7.60327" fill="black"/>
<circle cx="181.534" cy="107.534" r="2.53442" fill="white"/>
<mask id="mask3_35_207" style="mask-type:alpha" maskUnits="userSpaceOnUse" x="66" y="81" width="58" height="60">
<path d="M123.5 110.603C123.5 126.067 109.964 139.603 94.5 139.603C79.0581 139.603 66.5 126.09 66.5 110.603C66.5 95.0647 76.6051 82.1033 92 82.1033C109.765 82.1033 123.5 95.1784 123.5 110.603Z" fill="white" stroke="black"/>
</mask>
<g mask="url(#mask3_35_207)">
<path d="M87.5 138.5C54.7 114.1 72.8333 91.3333 86 83L80 73L47.5 93.5V145L87.5 138.5Z" fill="black" fill-opacity="0.3"/>
</g>
<mask id="mask4_35_207" style="mask-type:alpha" maskUnits="userSpaceOnUse" x="139" y="82" width="48" height="52">
<path d="M186.5 108C186.5 122.083 175.083 133.5 161 133.5C153.973 133.5 148.746 130.66 145.263 126.082C141.767 121.488 140 115.104 140 108C140 100.896 141.767 94.5123 145.263 89.918C148.746 85.3402 153.973 82.5 161 82.5C175.083 82.5 186.5 93.9167 186.5 108Z" fill="white" stroke="black"/>
</mask>
<g mask="url(#mask4_35_207)">
<path d="M162 137.5C129.2 113.1 143.833 89.3333 157 81L154.5 72L122 92.5V144L162 137.5Z" fill="black" fill-opacity="0.3"/>
</g>
<path d="M125 154C125 153.448 125.448 153 126 153C126.552 153 127 153.448 127 154V159C127 159.552 126.552 160 126 160C125.448 160 125 159.552 125 159V154Z" fill="white"/>
<circle cx="126" cy="162" r="1" fill="white"/>
</mask>
<g mask="url(#mask2_35_207)">
<path d="M69 29.2154C5 75.6154 13.6667 192.549 26 245.215L-45 264.215V62.2154L-20 -12.7846C36.3333 -18.1179 133 -17.1846 69 29.2154Z" fill="black" fill-opacity="0.16"/>
</g>
<path d="M111 53.1728C112.955 53.1728 103.613 53.315 101.664 53.1728C98.4754 52.9403 99.1388 55.632 99.3873 58.1882C99.6353 60.739 99.1154 65.3723 100.776 67.4861C102.166 69.2546 105.643 68.39 107.528 68.1805" stroke="#FF0000" stroke-linecap="round"/>
<path d="M105 61.5C107 61.5 111.869 61 112 62.5C112.172 64.4731 111 71.4806 111 69.5" stroke="#FF0000" stroke-linecap="round"/>
<path d="M114.125 52.9028C117.037 52.9028 120.068 53.1879 122.96 52.8835C123.973 52.7768 125.19 52.2652 126.201 52.6327C127.433 53.0808 126.886 55.9174 127.049 56.9151C127.092 57.1732 127.843 58.563 127.512 58.7284C125.864 59.5523 122.847 59.3825 121.031 59.4807C119.061 59.5872 117.158 59.8472 115.167 59.8472" stroke="#FF0000" stroke-linecap="round"/>
<path d="M115.861 54.2917C116.907 55.802 116.859 58.3853 117.057 60.1366C117.253 61.8748 117.663 63.4893 117.925 65.1906C118.048 65.9918 118.417 69.8542 117.597 70.2639" stroke="#FF0000" stroke-linecap="round"/>
<path d="M130.181 52.9028C133.848 52.9028 137.587 53.25 141.292 53.25" stroke="#FF0000" stroke-linecap="round"/>
<path d="M135.389 53.5972C137.483 54.2254 137.787 62.0661 137.819 64.091C137.849 65.916 137.819 67.7442 137.819 69.5694" stroke="#FF0000" stroke-linecap="round"/>
<defs>
<linearGradient id="paint0_linear_35_207" x1="140.5" y1="145" x2="139" y2="171" gradientUnits="userSpaceOnUse">
<stop stop-color="#F4F4F4"/>
<stop offset="1" stop-color="white"/>
</linearGradient>
<linearGradient id="paint1_linear_35_207" x1="140.5" y1="145" x2="139" y2="171" gradientUnits="userSpaceOnUse">
<stop stop-color="#F4F4F4"/>
<stop offset="1" stop-color="white"/>
</linearGradient>
</defs>
</svg>
