<svg width="218" height="256" viewBox="0 0 218 256" fill="none" xmlns="http://www.w3.org/2000/svg">
<path d="M161.5 27C143.9 19.8 138.167 54.6667 137.5 73L152.5 79C162.833 64.6667 179.1 34.2 161.5 27Z" fill="#F6C8C8" stroke="black"/>
<path d="M217.5 252.97C217.5 231.466 177.372 231.303 157.596 230L145.5 264.7L190.428 274.475C199.452 276.267 217.5 274.475 217.5 252.97Z" fill="#F6C8C8" stroke="black"/>
<path d="M13 183.5L7.5 188L8 192L13 183.5Z" fill="#D9D9D9" stroke="black"/>
<path d="M193.666 247.719C190.336 232.314 187.407 232.639 177.917 233.182L165.5 243.636L169.639 258.969C178.262 265.706 198.882 271.848 193.666 247.719Z" fill="#DFADAD"/>
<path d="M92 55C79 55 67.2883 59.8051 43.5 70C36.5 73 14.6408 88 10 130.5C9.29445 136.962 6.71673 169.562 10 195.5L63.5 303C100.833 302 177.1 299.5 183.5 297.5C189.9 295.5 186.667 274.667 184 262C186.167 264.333 188.155 232.5 183.5 153C178.845 73.5 155 60 113.5 56L126 43.5L102 55L109 39C109 39 95.5 47.5 92 55Z" fill="#F9DBDB" stroke="black"/>
<path d="M153.5 224.5C136.7 224.5 49.1667 200.5 7.50002 188.5C7.50002 233.5 6.16668 238.5 11.5 257.5L1.5 292L191.5 311L186 208.5C177.833 214 159.9 224.5 153.5 224.5Z" fill="#2969A5" stroke="black"/>
<path d="M54.5 223C51 217 34.5 201.5 33.5 196L73.5 209L135.5 226.5L77.5 232.5C77.5 210 66 215.5 54.5 223Z" fill="#265886"/>
<path d="M102.544 255.275C101.125 234.454 72.3872 233.192 58.1956 235.164L44.5954 262.373L61.1522 278.343C75.5408 279.329 103.963 276.096 102.544 255.275Z" fill="#F6C8C8" stroke="black"/>
<path d="M72.3715 249.662C73.7244 230.405 68.6817 231.863 64.3599 233.201L57.5954 243.23L59.8502 257.94C64.5478 264.404 71.0186 268.919 72.3715 249.662Z" fill="#DFADAD"/>
<path d="M175 226.5L158.5 225L169 219.5L179 213L186 209L185 218C185 218 184.1 216 180.5 216C176.9 216 174.833 223.5 175 226.5Z" fill="#265886"/>
<path d="M43.6466 230.538C17.1354 234.209 23.4052 257.135 22.6354 262.198L26.0993 272.129L45.1505 270.961L64.1715 269.792C64.1715 269.792 73.0592 232.875 69.5953 230.538C66.1315 228.201 56.2315 228.795 43.6466 230.538Z" fill="#2969A5" stroke="black"/>
<path d="M56.5 218.5L33 196C67.8333 203.333 150.7 222.2 153.5 225C153.5 225 163.795 219.387 170.5 216C176.502 212.968 186 208 186 208L184.5 216C179.5 211 174 219 174 225H153.5L80.5 228.5C80.5 215.5 71 208.5 56.5 218.5Z" fill="#2969A5"/>
<path d="M153.5 225L80.5 228.5C80.5 215.5 71 208.5 56.5 218.5L33 196C67.8333 203.333 150.7 222.2 153.5 225ZM153.5 225H174C174 219 179.5 211 184.5 216L186 208C186 208 176.502 212.968 170.5 216C163.795 219.387 153.5 225 153.5 225Z" stroke="black"/>
<circle cx="154.5" cy="230" r="2.5" fill="#F6AC1D" stroke="black"/>
<path d="M149.711 66.154C151.967 61.0938 153.199 55.9925 159.989 54" stroke="black"/>
<path d="M151.989 46C153.011 49.209 153.951 57.5953 149.539 65.4681" stroke="black"/>
<circle cx="156.5" cy="243" r="2.5" fill="#F6AC1D" stroke="black"/>
<path d="M66.4769 80.9468L45.7606 73.1311L45 55L68 48.5L75.5 46C86.879 42.0467 114.179 50.5334 136.5 53.5C164.402 57.2082 180.396 71.3753 175 76C157.5 91 112.5 98 66.4769 80.9468Z" fill="#5B310B" stroke="black"/>
<path d="M64.4748 20.4645L66.3744 43.3859L65.3261 54.953C69.4758 60.6297 87.7227 62.8847 93.5 64C101.184 65.4834 117.074 64.2829 126.5 63C135.926 61.7171 135.5 58.5 135.5 52C135.5 45.3292 128.163 17.9519 127.5 16C126.837 14.0481 113.646 2.34153 105.962 6.4903C98.2788 10.6391 93.7529 10.5124 80.2164 10.6308C69.3872 10.7255 65.2098 17.2261 64.4748 20.4645Z" fill="#5B310B" stroke="black"/>
<mask id="mask0_84_156" style="mask-type:alpha" maskUnits="userSpaceOnUse" x="63" y="6" width="77" height="68">
<path d="M64.5574 21.4611L66.4569 44.3825L64.5023 51.0668C68.652 56.7435 78.4044 68.6788 84.2165 71.0067C91.4817 73.9166 111.413 72.2648 120.84 70.9819C130.266 69.699 138.2 62.5192 139.158 55.9175C140.116 49.3158 129.167 20.1203 128.504 18.1685C127.84 16.2166 113.729 3.33811 106.045 7.48688C98.3614 11.6356 93.8354 11.509 80.299 11.6274C69.4698 11.7221 65.2924 18.2227 64.5574 21.4611Z" fill="#5B310B" stroke="black"/>
</mask>
<g mask="url(#mask0_84_156)">
<path d="M117 14.5C109 18.5 89.5 15.5 73.6636 10.2635L95.0457 -0.691656L99.5 -0.691656C99.5 2 123.528 11.2358 117 14.5Z" fill="#422206" stroke="black"/>
</g>
<circle cx="157.5" cy="256" r="2.5" fill="#F6AC1D" stroke="black"/>
<path d="M127.792 186.44C118.312 183.064 122.177 173.209 122.831 167.03C130.903 164.596 145.233 160.904 149.945 164.498C155.835 168.992 151 185 148.137 186.018C145.274 187.035 135.742 189.27 127.792 186.44Z" fill="url(#paint0_linear_84_156)" stroke="black"/>
<path d="M107.5 159.5C107.5 151.9 118.833 149.667 124.5 149.5C126.333 148.833 131.713 147.924 138.5 147.5C154.5 146.5 157.066 153.527 157.5 157C158 161 157 165 151 166C147.054 166.658 144.5 164 136.5 164.5C132.508 164.75 129.5 168.5 124.5 168.5C118.833 168.667 107.5 167.1 107.5 159.5Z" fill="#F6C8C8" stroke="black"/>
<path d="M139.5 164.5C141 168 143 179 139 187.5" stroke="black"/>
<path d="M191 125C191 141.292 177.792 154.5 161.5 154.5C153.367 154.5 147.265 151.211 143.183 145.908C139.089 140.589 137 133.207 137 125C137 116.793 139.089 109.411 143.183 104.092C147.265 98.7885 153.367 95.5 161.5 95.5C177.792 95.5 191 108.708 191 125Z" fill="white" stroke="black"/>
<path d="M187 125C187 139.083 175.583 150.5 161.5 150.5C154.473 150.5 149.246 147.66 145.763 143.082C142.267 138.488 140.5 132.104 140.5 125C140.5 117.896 142.267 111.512 145.763 106.918C149.246 102.34 154.473 99.5 161.5 99.5C175.583 99.5 187 110.917 187 125Z" fill="white" stroke="black"/>
<path d="M149.5 151C149.5 154.866 146.313 158 138.329 158C130.344 158 126.5 154.866 126.5 151C126.5 147.134 130.344 144 138.329 144C146.313 144 149.5 147.134 149.5 151Z" fill="#1C1919"/>
<path d="M91.5 96.6033H91.5197L91.5394 96.6017C110.255 95.1242 126 109.952 126 127.603C126 145.297 112.653 159.603 95 159.603C77.3071 159.603 62 145.257 62 127.603C62 109.897 73.8588 96.6033 91.5 96.6033Z" fill="white" stroke="black"/>
<path d="M124 127.603C124 143.067 110.464 156.603 95 156.603C79.5581 156.603 67 143.09 67 127.603C67 112.065 77.1051 99.1033 92.5 99.1033C110.265 99.1033 124 112.178 124 127.603Z" fill="white" stroke="black"/>
<path d="M126 129C126.167 126.833 135.5 125 137 128.5" stroke="black"/>
<circle cx="182.5" cy="126" r="2" fill="white"/>
<mask id="mask1_84_156" style="mask-type:alpha" maskUnits="userSpaceOnUse" x="66" y="98" width="59" height="60">
<path d="M124 127.603C124 143.067 110.464 156.603 95 156.603C79.5581 156.603 67 143.09 67 127.603C67 112.065 77.1051 99.1033 92.5 99.1033C110.265 99.1033 124 112.178 124 127.603Z" fill="white" stroke="black"/>
</mask>
<g mask="url(#mask1_84_156)">
<path d="M88 155.5C55.2 131.1 73.3333 108.333 86.5 100L80.5 90L48 110.5V162L88 155.5Z" fill="black" fill-opacity="0.3"/>
</g>
<mask id="mask2_84_156" style="mask-type:alpha" maskUnits="userSpaceOnUse" x="140" y="99" width="48" height="52">
<path d="M187 125C187 139.083 175.583 150.5 161.5 150.5C154.473 150.5 149.246 147.66 145.763 143.082C142.267 138.488 140.5 132.104 140.5 125C140.5 117.896 142.267 111.512 145.763 106.918C149.246 102.34 154.473 99.5 161.5 99.5C175.583 99.5 187 110.917 187 125Z" fill="white" stroke="black"/>
</mask>
<g mask="url(#mask2_84_156)">
<path d="M162.5 154.5C129.7 130.1 147.833 107.333 161 99L155 89L122.5 109.5V161L162.5 154.5Z" fill="black" fill-opacity="0.3"/>
</g>
<path d="M125.5 171C125.5 170.448 125.948 170 126.5 170V170C127.052 170 127.5 170.448 127.5 171V176C127.5 176.552 127.052 177 126.5 177V177C125.948 177 125.5 176.552 125.5 176V171Z" fill="white"/>
<circle cx="126.5" cy="179" r="1" fill="white"/>
<path d="M89 70.5C73.5 55.5001 62.7482 54.2301 56 54.5C43.5 55 33 57.5001 25.5 66C25.5 66 81.5 91 119 91C113 88.499 98.5 81.4991 89 70.5Z" fill="#764C25" stroke="black"/>
<path d="M62 71.5C56.4312 80.5 45.5 78.5 43 78.5C39 71.5 32.2896 48.5534 31.5 45C28.5 31.5 28.7414 20.9576 38.2414 18.4576C47.7414 15.9576 53.1675 24.335 55 28C56.5 31 61.6667 58.3333 62 71.5Z" fill="#F9DBDB" stroke="black"/>
<path d="M53 78C52.3333 72.5 52.2 60.2 57 55" stroke="black"/>
<path d="M40.5 56C44.3333 58.6667 52.1 66.7 52.5 77.5" stroke="black"/>
<mask id="mask3_84_156" style="mask-type:alpha" maskUnits="userSpaceOnUse" x="1" y="17" width="211" height="295">
<path d="M161.5 27C143.9 19.8 138.167 54.6667 137.5 73L152.5 79C162.833 64.6667 179.1 34.2 161.5 27Z" fill="#F6C8C8" stroke="black"/>
<path d="M211.5 255.908C211.5 237.271 174.716 237.13 156.588 236L145.5 266.073L186.684 274.545C194.956 276.098 211.5 274.545 211.5 255.908Z" fill="#F6C8C8" stroke="black"/>
<path d="M13 183.5L7.5 188L8 192L13 183.5Z" fill="#D9D9D9" stroke="black"/>
<path d="M192 251.5C190.404 238.73 189 239 184.451 239.45L178.5 248.115L180.484 260.825C184.617 266.409 194.5 271.5 192 251.5Z" fill="#DFADAD"/>
<path d="M92 55C79 55 67.2883 59.8051 43.5 70C36.5 73 14.6408 88 10 130.5C9.29445 136.962 6.71673 169.562 10 195.5L63.5 303C100.833 302 177.1 299.5 183.5 297.5C189.9 295.5 186.667 274.667 184 262C186.167 264.333 188.155 232.5 183.5 153C178.845 73.5 155 60 113.5 56L126 43.5L102 55L109 39C109 39 95.5 47.5 92 55Z" fill="#F9DBDB" stroke="black"/>
<path d="M153.5 224.5C136.7 224.5 49.1667 200.5 7.5 188.5C7.5 233.5 6.16667 238.5 11.5 257.5L2 292.5L191.5 311L186 208.5C177.833 214 159.9 224.5 153.5 224.5Z" fill="white" stroke="black"/>
<path d="M54.5 223C51 217 34.5 201.5 33.5 196L73.5 209L135.5 226.5L77.5 232.5C77.5 210 66 215.5 54.5 223Z" fill="#E4E4E4"/>
<path d="M129 261C127.8 243.4 103.5 242.333 91.5 244L80 267L94 280.5C106.167 281.333 130.2 278.6 129 261Z" fill="#F6C8C8" stroke="black"/>
<path d="M103.5 256.5C104.69 239.862 100.254 241.122 96.4514 242.277L90.5 250.943L92.4838 263.652C96.6168 269.237 102.31 273.138 103.5 256.5Z" fill="#DFADAD"/>
<path d="M175 226.5L158.5 225L169 219.5L179 213L186 209L185 218C185 218 184.1 216 180.5 216C176.9 216 174.833 223.5 175 226.5Z" fill="#E4E4E4"/>
<path d="M79 240C67.4 240 63.1667 253.667 62.5 258L65.5 266.5L98.5 264.5C98.5 264.5 104.5 242 101.5 240C98.5 238 90.6 240 79 240Z" fill="white" stroke="black"/>
<path d="M56.5 218.5L33 196C67.8333 203.333 150.7 222.2 153.5 225C153.5 225 163.795 219.387 170.5 216C176.502 212.968 186 208 186 208L184.5 216C179.5 211 174 219 174 225H153.5L80.5 228.5C80.5 215.5 71 208.5 56.5 218.5Z" fill="white"/>
<path d="M153.5 225L80.5 228.5C80.5 215.5 71 208.5 56.5 218.5L33 196C67.8333 203.333 150.7 222.2 153.5 225ZM153.5 225H174C174 219 179.5 211 184.5 216L186 208C186 208 176.502 212.968 170.5 216C163.795 219.387 153.5 225 153.5 225Z" stroke="black"/>
<circle cx="154.5" cy="230" r="2.5" fill="#FFFEFE" stroke="black"/>
<circle cx="156.5" cy="243" r="2.5" fill="#FFFEFE" stroke="black"/>
<circle cx="157.5" cy="256" r="2.5" fill="#FFFEFE" stroke="black"/>
<path d="M149.711 66.154C151.967 61.0938 153.199 55.9925 159.989 54" stroke="black"/>
<path d="M151.989 46C153.011 49.209 153.951 57.5953 149.539 65.4681" stroke="black"/>
<path d="M62 71.5C56.4312 80.5 45.5 78.5 43 78.5C39 71.5 32.2896 48.5534 31.5 45C28.5 31.5 28.7414 20.9576 38.2414 18.4576C47.7414 15.9576 53.1675 24.335 55 28C56.5 31 61.6667 58.3333 62 71.5Z" fill="#F9DBDB" stroke="black"/>
<path d="M127.792 186.44C118.312 183.064 122.177 173.209 122.831 167.03C130.903 164.596 145.233 160.904 149.945 164.498C155.835 168.992 151 185 148.137 186.018C145.274 187.035 135.742 189.27 127.792 186.44Z" fill="url(#paint1_linear_84_156)" stroke="black"/>
<path d="M107.5 159.5C107.5 151.9 118.833 149.667 124.5 149.5C126.333 148.833 131.713 147.924 138.5 147.5C154.5 146.5 157.066 153.527 157.5 157C158 161 157 165 151 166C147.054 166.658 144.5 164 136.5 164.5C132.508 164.75 129.5 168.5 124.5 168.5C118.833 168.667 107.5 167.1 107.5 159.5Z" fill="#F6C8C8" stroke="black"/>
<path d="M139.5 164.5C141 168 143 179 139 187.5" stroke="black"/>
<path d="M191 125C191 141.292 177.792 154.5 161.5 154.5C153.367 154.5 147.265 151.211 143.183 145.908C139.089 140.589 137 133.207 137 125C137 116.793 139.089 109.411 143.183 104.092C147.265 98.7885 153.367 95.5 161.5 95.5C177.792 95.5 191 108.708 191 125Z" fill="white" stroke="black"/>
<path d="M187 125C187 139.083 175.583 150.5 161.5 150.5C154.473 150.5 149.246 147.66 145.763 143.082C142.267 138.488 140.5 132.104 140.5 125C140.5 117.896 142.267 111.512 145.763 106.918C149.246 102.34 154.473 99.5 161.5 99.5C175.583 99.5 187 110.917 187 125Z" fill="white" stroke="black"/>
<path d="M149.5 151C149.5 154.866 146.313 158 138.329 158C130.344 158 126.5 154.866 126.5 151C126.5 147.134 130.344 144 138.329 144C146.313 144 149.5 147.134 149.5 151Z" fill="#1C1919"/>
<path d="M91.5 96.6033H91.5197L91.5394 96.6017C110.255 95.1242 126 109.952 126 127.603C126 145.297 112.653 159.603 95 159.603C77.3071 159.603 62 145.257 62 127.603C62 109.897 73.8588 96.6033 91.5 96.6033Z" fill="white" stroke="black"/>
<path d="M124 127.603C124 143.067 110.464 156.603 95 156.603C79.5581 156.603 67 143.09 67 127.603C67 112.065 77.1051 99.1033 92.5 99.1033C110.265 99.1033 124 112.178 124 127.603Z" fill="white" stroke="black"/>
<path d="M126 129C126.167 126.833 135.5 125 137 128.5" stroke="black"/>
<circle cx="182.5" cy="126" r="2" fill="white"/>
<circle cx="114.103" cy="128.603" r="7.60327" fill="black"/>
<circle cx="118.034" cy="126.534" r="2.53442" fill="white"/>
<circle cx="178.103" cy="126.603" r="7.60327" fill="black"/>
<circle cx="182.034" cy="124.534" r="2.53442" fill="white"/>
<mask id="mask4_84_156" style="mask-type:alpha" maskUnits="userSpaceOnUse" x="66" y="98" width="59" height="60">
<path d="M124 127.603C124 143.067 110.464 156.603 95 156.603C79.5581 156.603 67 143.09 67 127.603C67 112.065 77.1051 99.1033 92.5 99.1033C110.265 99.1033 124 112.178 124 127.603Z" fill="white" stroke="black"/>
</mask>
<g mask="url(#mask4_84_156)">
<path d="M88 155.5C55.2 131.1 73.3333 108.333 86.5 100L80.5 90L48 110.5V162L88 155.5Z" fill="black" fill-opacity="0.3"/>
</g>
<mask id="mask5_84_156" style="mask-type:alpha" maskUnits="userSpaceOnUse" x="140" y="99" width="48" height="52">
<path d="M187 125C187 139.083 175.583 150.5 161.5 150.5C154.473 150.5 149.246 147.66 145.763 143.082C142.267 138.488 140.5 132.104 140.5 125C140.5 117.896 142.267 111.512 145.763 106.918C149.246 102.34 154.473 99.5 161.5 99.5C175.583 99.5 187 110.917 187 125Z" fill="white" stroke="black"/>
</mask>
<g mask="url(#mask5_84_156)">
<path d="M162.5 154.5C129.7 130.1 144.333 106.333 157.5 98L155 89L122.5 109.5V161L162.5 154.5Z" fill="black" fill-opacity="0.3"/>
</g>
<path d="M125.5 171C125.5 170.448 125.948 170 126.5 170V170C127.052 170 127.5 170.448 127.5 171V176C127.5 176.552 127.052 177 126.5 177V177C125.948 177 125.5 176.552 125.5 176V171Z" fill="white"/>
<circle cx="126.5" cy="179" r="1" fill="white"/>
</mask>
<g mask="url(#mask3_84_156)">
<path d="M69.5 46.2154C5.5 92.6154 14.1667 209.549 26.5 262.215L-44.5 281.215V79.2154L-19.5 4.21544C36.8333 -1.1179 133.5 -0.184566 69.5 46.2154Z" fill="black" fill-opacity="0.16"/>
</g>
<mask id="mask6_84_156" style="mask-type:alpha" maskUnits="userSpaceOnUse" x="63" y="8" width="73" height="61">
<path d="M64.4103 23.7008L66.3099 46.6222L65.2616 58.1893C69.4113 63.866 87.6582 66.121 93.4355 67.2363C101.12 68.7197 117.009 67.5192 126.435 66.2363C135.862 64.9534 135.435 61.7363 135.435 55.2363C135.435 48.5655 128.099 21.1882 127.435 19.2363C126.772 17.2844 113.581 5.57783 105.898 9.7266C98.2143 13.8754 93.6884 13.7487 80.1519 13.8671C69.3227 13.9618 65.1453 20.4624 64.4103 23.7008Z" fill="#5B310B" stroke="black"/>
</mask>
<g mask="url(#mask6_84_156)">
<path d="M134.5 42.5C111.5 55.5 91 48.5 66.5 43.5L65.5 51C98.5 59 115 62.5 135.5 49.5L134.5 42.5Z" fill="#AB9D82" stroke="black"/>
</g>
<path d="M120.345 42.073L124.356 48.8913C124.602 49.3101 125.114 49.4912 125.569 49.3206L131.757 47L127.276 53.9258C127.042 54.2872 127.066 54.7576 127.335 55.0938L132.165 61.1317L124.384 59.084C124.063 58.9995 123.721 59.0799 123.471 59.2985L116.872 65.0724L118.894 56.9866C119.002 56.554 118.811 56.102 118.425 55.8786L110.715 51.4149L118.595 51.0209C119.089 50.9962 119.491 50.6139 119.54 50.1216L120.345 42.073Z" fill="#F6AC1D" stroke="black"/>
<circle cx="120.5" cy="42" r="1.5" fill="#F6AC1D" stroke="black"/>
<circle cx="131.5" cy="47" r="1.5" fill="#F6AC1D" stroke="black"/>
<circle cx="111.5" cy="52" r="1.5" fill="#F6AC1D" stroke="black"/>
<circle cx="117.5" cy="64" r="1.5" fill="#F6AC1D" stroke="black"/>
<circle cx="132.5" cy="61" r="1.5" fill="#F6AC1D" stroke="black"/>
<path d="M158.5 63C161.833 63.8333 169.2 66.9 172 72.5" stroke="white" stroke-opacity="0.17" stroke-linecap="round"/>
<path d="M68 21C67.5 24 67 31.1 69 35.5" stroke="white" stroke-opacity="0.17" stroke-linecap="round"/>
<path d="M143.5 238.5L118.5 234.5L119 247L133.5 255L143.5 248V238.5Z" fill="#1B4E7D" stroke="black"/>
<path d="M185.5 234.5L167.5 237.5V245L178.5 252L185.5 244V234.5Z" fill="#1B4E7D" stroke="black"/>
<circle cx="132.5" cy="240" r="1.5" fill="#D9D9D9" stroke="black"/>
<circle cx="178.5" cy="239" r="1.5" fill="#D9D9D9" stroke="black"/>
<defs>
<linearGradient id="paint0_linear_84_156" x1="141" y1="162" x2="139.5" y2="188" gradientUnits="userSpaceOnUse">
<stop stop-color="#F4F4F4"/>
<stop offset="1" stop-color="white"/>
</linearGradient>
<linearGradient id="paint1_linear_84_156" x1="141" y1="162" x2="139.5" y2="188" gradientUnits="userSpaceOnUse">
<stop stop-color="#F4F4F4"/>
<stop offset="1" stop-color="white"/>
</linearGradient>
</defs>
</svg>
