<svg width="240" height="40" viewBox="0 0 240 40" fill="none" xmlns="http://www.w3.org/2000/svg">
<g clip-path="url(#clip0_22_2)">
<circle cx="20" cy="20" r="19" fill="white" stroke="black" stroke-width="2"/>
<path d="M14.548 16.36H16.12V17.824H10.72V16.36H12.292V15.64H14.548V16.36ZM19.144 15.88V18.148H20.044V19.948H19.144V22.048H16.888V15.88H19.144ZM12.856 18.04H13.984C14.592 18.04 15.08 18.204 15.448 18.532C15.816 18.86 16 19.296 16 19.84C16 20.384 15.816 20.82 15.448 21.148C15.08 21.476 14.592 21.64 13.984 21.64H12.856C12.248 21.64 11.76 21.476 11.392 21.148C11.024 20.82 10.84 20.384 10.84 19.84C10.84 19.296 11.024 18.86 11.392 18.532C11.76 18.204 12.248 18.04 12.856 18.04ZM13.144 20.128H13.708C13.796 20.128 13.868 20.1 13.924 20.044C13.98 19.988 14.008 19.916 14.008 19.828C14.008 19.74 13.98 19.668 13.924 19.612C13.868 19.556 13.796 19.528 13.708 19.528H13.144C13.056 19.528 12.984 19.556 12.928 19.612C12.872 19.668 12.844 19.74 12.844 19.828C12.844 19.916 12.872 19.988 12.928 20.044C12.984 20.1 13.056 20.128 13.144 20.128ZM10.96 22.048H13.216V23.308H19.144V24.988L10.96 25V22.048ZM26.907 15.88H29.163V21.04H26.907V15.88ZM23.391 20.044C23.071 20.364 22.703 20.612 22.287 20.788C21.879 20.956 21.451 21.04 21.003 21.04L20.523 19.24C21.011 19.24 21.423 19.064 21.759 18.712C22.095 18.352 22.263 17.82 22.263 17.116V16H24.507V17.116C24.507 17.82 24.675 18.352 25.011 18.712C25.347 19.064 25.759 19.24 26.247 19.24L25.767 21.04C25.319 21.04 24.887 20.956 24.471 20.788C24.063 20.612 23.703 20.364 23.391 20.044ZM21.003 23.38V21.58H29.163V25H26.907V23.38H21.003Z" fill="black"/>
<circle cx="60" cy="20" r="19" fill="white" stroke="black" stroke-width="2"/>
<path d="M53.9 15.856V15.868C54.612 15.868 55.164 16.048 55.556 16.408C55.956 16.768 56.156 17.268 56.156 17.908C56.156 18.548 55.956 19.048 55.556 19.408C55.164 19.768 54.612 19.948 53.9 19.948H52.976C52.264 19.948 51.708 19.768 51.308 19.408C50.916 19.048 50.72 18.548 50.72 17.908C50.72 17.268 50.916 16.768 51.308 16.408C51.708 16.048 52.264 15.868 52.976 15.868V15.856H53.9ZM59.12 15.88V19.984H56.876V15.88H59.12ZM53.252 18.316H53.624C53.76 18.316 53.864 18.28 53.936 18.208C54.008 18.128 54.044 18.024 54.044 17.896C54.044 17.76 54.008 17.656 53.936 17.584C53.864 17.512 53.76 17.476 53.624 17.476H53.252C53.124 17.476 53.02 17.512 52.94 17.584C52.868 17.656 52.832 17.76 52.832 17.896C52.832 18.024 52.868 18.128 52.94 18.208C53.02 18.28 53.124 18.316 53.252 18.316ZM59.12 23.32H53.216V23.68H59.24V25H50.96V22H56.876V21.64H50.96V20.32H59.12V23.32ZM66.8249 15.88H69.0809V21.04H66.8249V15.88ZM63.3089 20.044C62.9889 20.364 62.6209 20.612 62.2049 20.788C61.7969 20.956 61.3689 21.04 60.9209 21.04L60.4409 19.24C60.9289 19.24 61.3409 19.064 61.6769 18.712C62.0129 18.352 62.1809 17.82 62.1809 17.116V16H64.4249V17.116C64.4249 17.82 64.5929 18.352 64.9289 18.712C65.2649 19.064 65.6769 19.24 66.1649 19.24L65.6849 21.04C65.2369 21.04 64.8049 20.956 64.3889 20.788C63.9809 20.612 63.6209 20.364 63.3089 20.044ZM60.9209 23.38V21.58H69.0809V25H66.8249V23.38H60.9209Z" fill="black"/>
<circle cx="100" cy="20" r="19" fill="white" stroke="black" stroke-width="2"/>
<path d="M90.84 18.04C91.472 18.04 91.992 18.004 92.4 17.932C92.816 17.852 93.152 17.696 93.408 17.464H90.96V16.024H99.12V17.464H96.672C96.928 17.696 97.26 17.852 97.668 17.932C98.084 18.004 98.608 18.04 99.24 18.04L99 19.36C98.112 19.36 97.336 19.296 96.672 19.168C96.016 19.032 95.472 18.812 95.04 18.508C94.608 18.812 94.06 19.032 93.396 19.168C92.74 19.296 91.968 19.36 91.08 19.36L90.84 18.04ZM96.168 21.22V21.616H97.236C97.796 21.616 98.248 21.768 98.592 22.072C98.944 22.376 99.12 22.788 99.12 23.308C99.12 23.828 98.944 24.24 98.592 24.544C98.248 24.848 97.796 25 97.236 25H92.844C92.284 25 91.828 24.848 91.476 24.544C91.132 24.24 90.96 23.828 90.96 23.308C90.96 22.788 91.132 22.376 91.476 22.072C91.828 21.768 92.284 21.616 92.844 21.616H93.912V21.22H90.72V19.78H99.348V21.22H96.168ZM96.864 23.308C96.864 23.244 96.84 23.192 96.792 23.152C96.752 23.104 96.7 23.08 96.636 23.08H93.444C93.38 23.08 93.324 23.104 93.276 23.152C93.236 23.192 93.216 23.244 93.216 23.308C93.216 23.372 93.236 23.428 93.276 23.476C93.324 23.516 93.38 23.536 93.444 23.536H96.636C96.7 23.536 96.752 23.516 96.792 23.476C96.84 23.428 96.864 23.372 96.864 23.308ZM106.93 15.88H109.186V21.04H106.93V15.88ZM103.414 20.044C103.094 20.364 102.726 20.612 102.31 20.788C101.902 20.956 101.474 21.04 101.026 21.04L100.546 19.24C101.034 19.24 101.446 19.064 101.782 18.712C102.118 18.352 102.286 17.82 102.286 17.116V16H104.53V17.116C104.53 17.82 104.698 18.352 105.034 18.712C105.37 19.064 105.782 19.24 106.27 19.24L105.79 21.04C105.342 21.04 104.91 20.956 104.494 20.788C104.086 20.612 103.726 20.364 103.414 20.044ZM101.026 23.38V21.58H109.186V25H106.93V23.38H101.026Z" fill="black"/>
<circle cx="140" cy="20" r="19" fill="white" stroke="black" stroke-width="2"/>
<path d="M130.72 18.22V18.7C130.72 19.436 130.956 20.012 131.428 20.428C131.908 20.836 132.572 21.04 133.42 21.04C134.268 21.04 134.928 20.836 135.4 20.428C135.88 20.012 136.12 19.436 136.12 18.7V18.22C136.12 17.484 135.88 16.912 135.4 16.504C134.928 16.088 134.268 15.88 133.42 15.88C132.572 15.88 131.908 16.088 131.428 16.504C130.956 16.912 130.72 17.484 130.72 18.22ZM139.132 15.88V16.528H140.032V18.088H139.132V18.724H140.032V20.284H139.132V20.944H136.888V15.88H139.132ZM133 18.82V18.1C133 17.964 133.036 17.86 133.108 17.788C133.188 17.716 133.292 17.68 133.42 17.68C133.556 17.68 133.66 17.716 133.732 17.788C133.804 17.86 133.84 17.964 133.84 18.1V18.82C133.84 18.948 133.804 19.052 133.732 19.132C133.66 19.204 133.556 19.24 133.42 19.24C133.292 19.24 133.188 19.204 133.108 19.132C133.036 19.052 133 18.948 133 18.82ZM139.132 23.152C139.132 23.688 138.952 24.132 138.592 24.484C138.24 24.828 137.792 25 137.248 25H132.856C132.312 25 131.86 24.828 131.5 24.484C131.148 24.132 130.972 23.688 130.972 23.152C130.972 22.616 131.148 22.176 131.5 21.832C131.86 21.48 132.312 21.304 132.856 21.304H137.248C137.792 21.304 138.24 21.48 138.592 21.832C138.952 22.176 139.132 22.616 139.132 23.152ZM136.648 22.924H133.456C133.392 22.924 133.336 22.948 133.288 22.996C133.248 23.036 133.228 23.088 133.228 23.152C133.228 23.216 133.248 23.272 133.288 23.32C133.336 23.36 133.392 23.38 133.456 23.38H136.648C136.712 23.38 136.764 23.36 136.804 23.32C136.852 23.272 136.876 23.216 136.876 23.152C136.876 23.088 136.852 23.036 136.804 22.996C136.764 22.948 136.712 22.924 136.648 22.924ZM146.895 15.88H149.151V21.04H146.895V15.88ZM143.379 20.044C143.059 20.364 142.691 20.612 142.275 20.788C141.867 20.956 141.439 21.04 140.991 21.04L140.511 19.24C140.999 19.24 141.411 19.064 141.747 18.712C142.083 18.352 142.251 17.82 142.251 17.116V16H144.495V17.116C144.495 17.82 144.663 18.352 144.999 18.712C145.335 19.064 145.747 19.24 146.235 19.24L145.755 21.04C145.307 21.04 144.875 20.956 144.459 20.788C144.051 20.612 143.691 20.364 143.379 20.044ZM140.991 23.38V21.58H149.151V25H146.895V23.38H140.991Z" fill="black"/>
<circle cx="180" cy="20" r="19" fill="white" stroke="black" stroke-width="2"/>
<path d="M179.108 15.952V19.996H170.96V15.952H173.204V16.48H176.864V15.952H179.108ZM176.864 18.436V17.992H173.204V18.436H176.864ZM170.72 20.452H179.348V22.12H176.168V22.78H173.912V22.12H170.72V20.452ZM173.204 22.576V23.26H179.108V24.94H170.96V22.576H173.204ZM186.93 15.88H189.186V21.04H186.93V15.88ZM183.414 20.044C183.094 20.364 182.726 20.612 182.31 20.788C181.902 20.956 181.474 21.04 181.026 21.04L180.546 19.24C181.034 19.24 181.446 19.064 181.782 18.712C182.118 18.352 182.286 17.82 182.286 17.116V16H184.53V17.116C184.53 17.82 184.698 18.352 185.034 18.712C185.37 19.064 185.782 19.24 186.27 19.24L185.79 21.04C185.342 21.04 184.91 20.956 184.494 20.788C184.086 20.612 183.726 20.364 183.414 20.044ZM181.026 23.38V21.58H189.186V25H186.93V23.38H181.026Z" fill="black"/>
<circle cx="220" cy="20" r="19" fill="white" stroke="black" stroke-width="2"/>
<path d="M219.12 19.348H220.02V21.148H219.12V25H216.864V15.88H219.12V19.348ZM210.72 15.976H215.844V17.776C215.844 19.16 215.632 20.372 215.208 21.412C214.792 22.444 214.204 23.24 213.444 23.8C212.692 24.36 211.824 24.64 210.84 24.64L210.6 22.84C211.032 22.84 211.472 22.688 211.92 22.384C212.376 22.08 212.752 21.592 213.048 20.92H210.84V19.12H213.504C213.56 18.736 213.588 18.288 213.588 17.776H210.72V15.976ZM225.24 19.48V15.88H227.244V24.88H225.24V21.28H224.616L224.568 22.828H224.88V24.64H220.74V22.828H221.052L220.92 18.124H222.612L222.66 22.828H222.96L223.008 18.124H224.7L224.664 19.48H225.24ZM227.604 15.88H229.62V25H227.604V15.88ZM224.88 15.952V17.764H220.74V15.952H224.88Z" fill="black"/>
</g>
<defs>
<clipPath id="clip0_22_2">
<rect width="240" height="40" fill="white"/>
</clipPath>
</defs>
</svg>
