<svg width="240" height="40" viewBox="0 0 240 40" fill="none" xmlns="http://www.w3.org/2000/svg">
<g clip-path="url(#clip0_22_2)">
<circle cx="20" cy="20" r="19" fill="white" stroke="black" stroke-width="2"/>
<circle cx="60" cy="20" r="19" fill="white" stroke="black" stroke-width="2"/>
<circle cx="100" cy="20" r="19" fill="white" stroke="black" stroke-width="2"/>
<circle cx="140" cy="20" r="19" fill="white" stroke="black" stroke-width="2"/>
<circle cx="180" cy="20" r="19" fill="white" stroke="black" stroke-width="2"/>
<circle cx="220" cy="20" r="19" fill="white" stroke="black" stroke-width="2"/>
<path d="M195 20C195 28.2843 188.284 35 180 35C171.716 35 165 28.2843 165 20C165 11.7157 171.716 5 180 5C188.284 5 195 11.7157 195 20Z" fill="white"/>
<path fill-rule="evenodd" clip-rule="evenodd" d="M180 34C187.732 34 194 27.732 194 20C194 12.268 187.732 6 180 6C172.268 6 166 12.268 166 20C166 27.732 172.268 34 180 34ZM180 35C188.284 35 195 28.2843 195 20C195 11.7157 188.284 5 180 5C171.716 5 165 11.7157 165 20C165 28.2843 171.716 35 180 35Z" fill="black"/>
<path d="M191 20C191 26.0751 186.075 31 180 31C173.925 31 169 26.0751 169 20C169 13.9249 173.925 9 180 9C186.075 9 191 13.9249 191 20Z" fill="#E64926"/>
<path fill-rule="evenodd" clip-rule="evenodd" d="M180 30C185.523 30 190 25.5228 190 20C190 14.4772 185.523 10 180 10C174.477 10 170 14.4772 170 20C170 25.5228 174.477 30 180 30ZM180 31C186.075 31 191 26.0751 191 20C191 13.9249 186.075 9 180 9C173.925 9 169 13.9249 169 20C169 26.0751 173.925 31 180 31Z" fill="black"/>
<path d="M173.938 14.571C174.852 14.8864 175.337 15.8827 175.022 16.7963L173.879 20.1047C173.564 21.0183 172.568 21.5033 171.654 21.1879V21.1879C170.741 20.8725 170.256 19.8762 170.571 18.9626L171.713 15.6542C172.029 14.7406 173.025 14.2557 173.938 14.571V14.571Z" fill="#F0DEC6"/>
<path fill-rule="evenodd" clip-rule="evenodd" d="M172.934 19.7784L174.076 16.47C174.211 16.0784 174.004 15.6515 173.612 15.5163C173.221 15.3811 172.794 15.589 172.658 15.9805L171.516 19.2889C171.381 19.6805 171.589 20.1074 171.981 20.2426C172.372 20.3778 172.799 20.1699 172.934 19.7784ZM175.022 16.7963C175.337 15.8827 174.852 14.8864 173.938 14.571C173.025 14.2557 172.029 14.7406 171.713 15.6542L170.571 18.9626C170.256 19.8762 170.741 20.8725 171.654 21.1879C172.568 21.5033 173.564 21.0183 173.879 20.1047L175.022 16.7963Z" fill="black"/>
<path d="M187.191 19.9103C186.88 20.8254 185.886 21.315 184.971 21.0038L181.657 19.8771C180.742 19.5659 180.252 18.5719 180.563 17.6568V17.6568C180.875 16.7418 181.869 16.2522 182.784 16.5634L186.097 17.6901C187.012 18.0013 187.502 18.9953 187.191 19.9103V19.9103Z" fill="#F0DEC6"/>
<path fill-rule="evenodd" clip-rule="evenodd" d="M181.979 18.9303L185.292 20.057C185.685 20.1904 186.111 19.9806 186.244 19.5884C186.377 19.1963 186.168 18.7702 185.775 18.6369L182.462 17.5101C182.07 17.3768 181.643 17.5866 181.51 17.9788C181.377 18.3709 181.587 18.7969 181.979 18.9303ZM184.971 21.0038C185.886 21.315 186.88 20.8254 187.191 19.9103C187.502 18.9953 187.012 18.0013 186.097 17.6901L182.784 16.5634C181.869 16.2522 180.875 16.7418 180.563 17.6568C180.252 18.5719 180.742 19.5659 181.657 19.8771L184.971 21.0038Z" fill="black"/>
<path d="M179.191 26.9103C178.88 27.8254 177.886 28.315 176.971 28.0038L173.657 26.8771C172.742 26.5659 172.252 25.5719 172.563 24.6568V24.6568C172.875 23.7418 173.869 23.2522 174.784 23.5634L178.097 24.6901C179.012 25.0013 179.502 25.9953 179.191 26.9103V26.9103Z" fill="#F0DEC6"/>
<path fill-rule="evenodd" clip-rule="evenodd" d="M173.979 25.9303L177.292 27.057C177.685 27.1904 178.111 26.9806 178.244 26.5884C178.377 26.1963 178.168 25.7702 177.775 25.6369L174.462 24.5101C174.07 24.3768 173.643 24.5866 173.51 24.9788C173.377 25.3709 173.587 25.7969 173.979 25.9303ZM176.971 28.0038C177.886 28.315 178.88 27.8254 179.191 26.9103C179.502 25.9953 179.012 25.0013 178.097 24.6901L174.784 23.5634C173.869 23.2522 172.875 23.7418 172.563 24.6568C172.252 25.5719 172.742 26.5659 173.657 26.8771L176.971 28.0038Z" fill="black"/>
<path d="M180.912 23.0795C180.418 23.9105 179.345 24.184 178.514 23.6904L175.505 21.9029C174.674 21.4093 174.4 20.3355 174.894 19.5046V19.5046C175.387 18.6736 176.461 18.4001 177.292 18.8937L180.301 20.6812C181.132 21.1748 181.406 22.2486 180.912 23.0795V23.0795Z" fill="#F0DEC6"/>
<path fill-rule="evenodd" clip-rule="evenodd" d="M176.015 21.0431L179.024 22.8306C179.381 23.0422 179.841 22.925 180.052 22.5688C180.264 22.2127 180.147 21.7525 179.79 21.541L176.781 19.7535C176.425 19.542 175.965 19.6592 175.753 20.0153C175.542 20.3714 175.659 20.8316 176.015 21.0431ZM178.514 23.6904C179.345 24.184 180.418 23.9105 180.912 23.0795C181.406 22.2486 181.132 21.1748 180.301 20.6812L177.292 18.8937C176.461 18.4001 175.387 18.6736 174.894 19.5046C174.4 20.3355 174.674 21.4093 175.505 21.9029L178.514 23.6904Z" fill="black"/>
<path d="M185.681 28.0477C184.816 28.4777 183.765 28.1245 183.335 27.2589L181.778 24.1242C181.349 23.2586 181.702 22.2084 182.567 21.7785V21.7785C183.433 21.3485 184.483 21.7017 184.913 22.5673L186.47 25.702C186.9 26.5676 186.547 27.6178 185.681 28.0477V28.0477Z" fill="#F0DEC6"/>
<path fill-rule="evenodd" clip-rule="evenodd" d="M182.674 23.6794L184.231 26.814C184.415 27.185 184.865 27.3364 185.236 27.1521C185.607 26.9679 185.759 26.5178 185.574 26.1468L184.017 23.0121C183.833 22.6412 183.383 22.4898 183.012 22.6741C182.641 22.8583 182.49 23.3084 182.674 23.6794ZM183.335 27.2589C183.765 28.1245 184.816 28.4777 185.681 28.0477C186.547 27.6178 186.9 26.5676 186.47 25.702L184.913 22.5673C184.483 21.7017 183.433 21.3485 182.567 21.7785C181.702 22.2084 181.349 23.2586 181.778 24.1242L183.335 27.2589Z" fill="black"/>
<path d="M174.835 10.8956C175.295 8.7441 177.413 7.37364 179.565 7.83455C181.716 8.29546 185.298 10.849 184.774 13.2935C184.25 15.7381 180.047 16.0866 177.896 15.6257C175.744 15.1648 174.374 13.047 174.835 10.8956Z" fill="white"/>
<path fill-rule="evenodd" clip-rule="evenodd" d="M179.355 8.81236C177.744 8.46714 176.158 9.49361 175.812 11.105C175.467 12.7165 176.494 14.3027 178.105 14.6479C179.04 14.8482 180.477 14.8755 181.71 14.5772C183.004 14.2642 183.662 13.7123 183.796 13.0841C183.941 12.4093 183.533 11.5016 182.499 10.5593C181.507 9.65498 180.228 8.99944 179.355 8.81236ZM179.565 7.83455C177.413 7.37364 175.295 8.7441 174.835 10.8956C174.374 13.047 175.744 15.1648 177.896 15.6257C180.047 16.0866 184.25 15.7381 184.774 13.2935C185.298 10.849 181.716 8.29546 179.565 7.83455Z" fill="black"/>
<path d="M176.371 12.9494C175.698 11.6467 176.208 10.0447 177.511 9.37137C178.814 8.698 180.415 9.20816 181.089 10.5109C181.762 11.8136 181.252 13.4155 179.949 14.0889C178.647 14.7622 177.045 14.2521 176.371 12.9494Z" fill="#F8DA0D"/>
<path fill-rule="evenodd" clip-rule="evenodd" d="M177.97 10.2597C177.158 10.6795 176.84 11.6781 177.26 12.4902C177.679 13.3023 178.678 13.6203 179.49 13.2005C180.302 12.7808 180.62 11.7821 180.201 10.9701C179.781 10.158 178.782 9.83994 177.97 10.2597ZM177.511 9.37137C176.208 10.0447 175.698 11.6467 176.371 12.9494C177.045 14.2521 178.647 14.7622 179.949 14.0889C181.252 13.4155 181.762 11.8136 181.089 10.5109C180.415 9.20816 178.814 8.698 177.511 9.37137Z" fill="black"/>
<path d="M181 27.5C181 27.2239 181.224 27 181.5 27V27C181.776 27 182 27.2239 182 27.5V27.5C182 27.7761 181.776 28 181.5 28V28C181.224 28 181 27.7761 181 27.5V27.5Z" fill="#6CC216"/>
<path fill-rule="evenodd" clip-rule="evenodd" d="M182 27.5C182 27.2239 181.776 27 181.5 27C181.224 27 181 27.2239 181 27.5C181 27.7761 181.224 28 181.5 28C181.776 28 182 27.7761 182 27.5ZM181.5 29C180.672 29 180 28.3284 180 27.5C180 26.6716 180.672 26 181.5 26C182.328 26 183 26.6716 183 27.5C183 28.3284 182.328 29 181.5 29Z" fill="black"/>
<path d="M178 17.5C178 17.2239 178.224 17 178.5 17V17C178.776 17 179 17.2239 179 17.5V17.5C179 17.7761 178.776 18 178.5 18V18C178.224 18 178 17.7761 178 17.5V17.5Z" fill="#6CC216"/>
<path fill-rule="evenodd" clip-rule="evenodd" d="M179 17.5C179 17.2239 178.776 17 178.5 17C178.224 17 178 17.2239 178 17.5C178 17.7761 178.224 18 178.5 18C178.776 18 179 17.7761 179 17.5ZM178.5 19C177.672 19 177 18.3284 177 17.5C177 16.6716 177.672 16 178.5 16C179.328 16 180 16.6716 180 17.5C180 18.3284 179.328 19 178.5 19Z" fill="black"/>
<path d="M187 23.5C187 23.2239 187.224 23 187.5 23V23C187.776 23 188 23.2239 188 23.5V23.5C188 23.7761 187.776 24 187.5 24V24C187.224 24 187 23.7761 187 23.5V23.5Z" fill="#6CC216"/>
<path fill-rule="evenodd" clip-rule="evenodd" d="M188 23.5C188 23.2239 187.776 23 187.5 23C187.224 23 187 23.2239 187 23.5C187 23.7761 187.224 24 187.5 24C187.776 24 188 23.7761 188 23.5ZM187.5 25C186.672 25 186 24.3284 186 23.5C186 22.6716 186.672 22 187.5 22C188.328 22 189 22.6716 189 23.5C189 24.3284 188.328 25 187.5 25Z" fill="black"/>
<path d="M186 15.5C186 15.2239 186.224 15 186.5 15V15C186.776 15 187 15.2239 187 15.5V15.5C187 15.7761 186.776 16 186.5 16V16C186.224 16 186 15.7761 186 15.5V15.5Z" fill="#6CC216"/>
<path fill-rule="evenodd" clip-rule="evenodd" d="M187 15.5C187 15.2239 186.776 15 186.5 15C186.224 15 186 15.2239 186 15.5C186 15.7761 186.224 16 186.5 16C186.776 16 187 15.7761 187 15.5ZM186.5 17C185.672 17 185 16.3284 185 15.5C185 14.6716 185.672 14 186.5 14C187.328 14 188 14.6716 188 15.5C188 16.3284 187.328 17 186.5 17Z" fill="black"/>
<path fill-rule="evenodd" clip-rule="evenodd" d="M14.0798 18.7301C13.8301 18.7921 13.5689 18.825 13.3 18.825C11.5189 18.825 10.075 17.3811 10.075 15.6C10.075 14.9901 10.2443 14.4197 10.5385 13.9333C10.5175 13.7848 10.5067 13.633 10.5067 13.4786C10.5067 11.7856 11.8113 10.3973 13.47 10.2641C13.9015 8.99114 15.1062 8.075 16.525 8.075C16.7819 8.075 17.0317 8.10503 17.2712 8.16177C17.8628 7.45183 18.7536 7 19.75 7C20.7463 7 21.6372 7.45183 22.2287 8.16177C22.4683 8.10503 22.7181 8.075 22.975 8.075C24.4303 8.075 25.6605 9.03895 26.0618 10.3632C27.3054 10.7401 28.2312 11.8479 28.3394 13.1867C29.0053 13.7775 29.425 14.6398 29.425 15.6C29.425 17.3811 27.9811 18.825 26.2 18.825C26.0241 18.825 25.8514 18.8109 25.6831 18.7838L25.125 19.9L18.1375 22.05L14.0798 18.7301Z" fill="white"/>
<path fill-rule="evenodd" clip-rule="evenodd" d="M19.75 7.5C18.9083 7.5 18.156 7.88103 17.6554 8.48185C17.5339 8.62756 17.3405 8.69202 17.156 8.6483C16.954 8.60044 16.7428 8.575 16.525 8.575C15.327 8.575 14.3083 9.34842 13.9435 10.4246C13.8794 10.6137 13.709 10.7465 13.51 10.7625C12.109 10.875 11.0067 12.0484 11.0067 13.4786C11.0067 13.6095 11.0159 13.738 11.0336 13.8634C11.0497 13.9775 11.0259 14.0936 10.9663 14.1921C10.718 14.6026 10.575 15.0838 10.575 15.6C10.575 17.105 11.795 18.325 13.3 18.325C13.528 18.325 13.7487 18.2971 13.9593 18.2448C14.1124 18.2068 14.2744 18.2432 14.3964 18.3431L18.2467 21.4933L24.7735 19.485L25.2359 18.5602C25.3336 18.3648 25.5469 18.2554 25.7626 18.2902C25.9047 18.3131 26.0508 18.325 26.2 18.325C27.705 18.325 28.925 17.105 28.925 15.6C28.925 14.7887 28.5711 14.0607 28.0076 13.5608C27.9111 13.4752 27.8514 13.3556 27.841 13.227C27.7497 12.0971 26.9677 11.1602 25.9168 10.8417C25.7569 10.7932 25.6318 10.6681 25.5833 10.5082C25.2441 9.3889 24.2039 8.575 22.975 8.575C22.7572 8.575 22.546 8.60044 22.344 8.64831C22.1595 8.69203 21.966 8.62756 21.8446 8.48185C21.344 7.88103 20.5917 7.5 19.75 7.5ZM17.0897 7.6176C17.7653 6.92851 18.7078 6.5 19.75 6.5C20.7922 6.5 21.7347 6.92851 22.4103 7.6176C22.5946 7.58953 22.7833 7.575 22.975 7.575C24.5642 7.575 25.9198 8.56982 26.4553 9.96972C27.7054 10.4478 28.6322 11.5797 28.8165 12.9487C29.5003 13.6236 29.925 14.5625 29.925 15.6C29.925 17.6573 28.2573 19.325 26.2 19.325C26.1245 19.325 26.0494 19.3227 25.9749 19.3183L25.5722 20.1236C25.5111 20.2458 25.4026 20.3377 25.272 20.3779L18.2845 22.5279C18.1245 22.5771 17.9505 22.543 17.8209 22.437L13.9485 19.2687C13.7376 19.3057 13.5209 19.325 13.3 19.325C11.2427 19.325 9.575 17.6573 9.575 15.6C9.575 14.9593 9.73716 14.3552 10.0229 13.8278C10.0122 13.7127 10.0067 13.5963 10.0067 13.4786C10.0067 11.6323 11.3496 10.1001 13.1123 9.80497C13.6881 8.49256 14.9988 7.575 16.525 7.575C16.7167 7.575 16.9053 7.58952 17.0897 7.6176Z" fill="black"/>
<path d="M14.375 30.65C14.375 29.4626 15.3376 28.5 16.525 28.5H22.975C24.1624 28.5 25.125 29.4626 25.125 30.65V30.65C25.125 31.8374 24.1624 32.8 22.975 32.8H16.525C15.3376 32.8 14.375 31.8374 14.375 30.65V30.65Z" fill="#BAC0AE"/>
<path fill-rule="evenodd" clip-rule="evenodd" d="M22.975 29.5H16.525C15.8899 29.5 15.375 30.0149 15.375 30.65C15.375 31.2851 15.8899 31.8 16.525 31.8H22.975C23.6101 31.8 24.125 31.2851 24.125 30.65C24.125 30.0149 23.6101 29.5 22.975 29.5ZM16.525 28.5C15.3376 28.5 14.375 29.4626 14.375 30.65C14.375 31.8374 15.3376 32.8 16.525 32.8H22.975C24.1624 32.8 25.125 31.8374 25.125 30.65C25.125 29.4626 24.1624 28.5 22.975 28.5H16.525Z" fill="black"/>
<path d="M9 16.6855C9 16.1009 9.49897 15.6402 10.0819 15.6835C12.1171 15.8345 16.594 16.1375 19.75 16.1375C22.906 16.1375 27.3829 15.8345 29.4181 15.6835C30.001 15.6402 30.5 16.1009 30.5 16.6855V20.65C30.5 26.1728 26.0228 30.65 20.5 30.65H19C13.4772 30.65 9 26.1729 9 20.65V16.6855Z" fill="#BAC0AE"/>
<path fill-rule="evenodd" clip-rule="evenodd" d="M29.5 20.65V16.6855C29.5 16.6852 29.5 16.6849 29.5 16.6846C29.4997 16.6843 29.4992 16.6837 29.4985 16.6831C29.4968 16.6815 29.4954 16.6809 29.4951 16.6808L29.495 16.6807L29.4943 16.6807L29.4921 16.6808C27.459 16.8316 22.9477 17.1375 19.75 17.1375C16.5523 17.1375 12.041 16.8316 10.0079 16.6808L10.0057 16.6807L10.005 16.6807L10.0049 16.6808C10.0046 16.6809 10.0032 16.6815 10.0015 16.6831C10.0008 16.6837 10.0003 16.6843 10 16.6847C10 16.6849 10 16.6852 10 16.6855V20.65C10 25.6206 14.0294 29.65 19 29.65H20.5C25.4706 29.65 29.5 25.6206 29.5 20.65ZM10.0819 15.6835C9.49897 15.6402 9 16.1009 9 16.6855V20.65C9 26.1729 13.4772 30.65 19 30.65H20.5C26.0228 30.65 30.5 26.1728 30.5 20.65V16.6855C30.5 16.1009 30.001 15.6402 29.4181 15.6835C27.3829 15.8345 22.906 16.1375 19.75 16.1375C16.594 16.1375 12.1171 15.8345 10.0819 15.6835Z" fill="black"/>
<path d="M26.2 18.825C26.2 19.4187 25.7187 19.9 25.125 19.9C24.5313 19.9 24.05 19.4187 24.05 18.825C24.05 18.2313 24.5313 17.75 25.125 17.75C25.7187 17.75 26.2 18.2313 26.2 18.825Z" fill="#CCD2BF"/>
<path d="M25.125 26.35C24.5313 26.35 24.05 25.8687 24.05 25.275L24.05 22.05C24.05 21.4563 24.5313 20.975 25.125 20.975V20.975C25.7187 20.975 26.2 21.4563 26.2 22.05L26.2 25.275C26.2 25.8687 25.7187 26.35 25.125 26.35V26.35Z" fill="#CCD2BF"/>
<path d="M47.4875 23.6054C46.5896 21.8095 47.1882 20.3129 47.9365 19.5647L49.2834 17.3198L56.0179 15.5239C60.0586 16.5715 65.985 18.2178 68.1401 18.2178C70.2951 18.2178 72.3305 19.864 71.7318 20.9116C72.4502 21.9891 73.0788 22.2585 71.7318 23.6054C72.6298 25.4013 71.2829 26.2992 70.3849 26.2992C69.936 27.6461 69.487 27.6461 68.1401 27.6461C67.6911 28.0951 66.7932 28.5441 64.9973 28.0951C63.2014 28.5441 64.0994 28.993 61.4055 28.5441C59.9688 28.9032 58.7117 28.993 57.8138 28.5441C57.8138 28.5441 56.4669 29.442 55.12 28.5441C52.4261 28.5441 53.0547 28.7236 51.9772 27.6461C50.1813 27.6461 49.7323 27.6461 49.2834 26.2992C47.9365 26.2992 46.5896 24.9523 47.4875 23.6054Z" fill="white"/>
<path fill-rule="evenodd" clip-rule="evenodd" d="M56.0161 15.0069L56.1434 15.0399C56.6964 15.1833 57.2831 15.3375 57.8896 15.4968C59.5074 15.9218 61.2663 16.384 62.903 16.7776C65.175 17.3239 67.1336 17.7178 68.1401 17.7178C69.3352 17.7178 70.4889 18.1704 71.274 18.7759C71.6659 19.0782 71.995 19.441 72.1796 19.8378C72.3242 20.1488 72.3866 20.5013 72.295 20.8467C72.3447 20.916 72.3921 20.9799 72.4396 21.0439C72.5022 21.1282 72.565 21.2127 72.6335 21.3103C72.7781 21.5163 72.9338 21.7631 72.9954 22.0537C73.1161 22.6226 72.8464 23.1369 72.3247 23.7092C72.6712 24.6006 72.5533 25.3638 72.1318 25.9257C71.7781 26.3974 71.2475 26.6739 70.7481 26.7653C70.5348 27.3064 70.2668 27.703 69.8228 27.925C69.5751 28.0489 69.3084 28.0994 69.0399 28.1231C68.8274 28.1419 68.5893 28.1453 68.3336 28.146C67.7215 28.6573 66.6928 29.0047 65.0015 28.6105C64.6535 28.704 64.4334 28.794 64.2687 28.8709C64.227 28.8903 64.1802 28.9136 64.1302 28.9386C63.9983 29.0044 63.8433 29.0816 63.6963 29.1306C63.2348 29.2845 62.6781 29.2595 61.4254 29.0541C60.121 29.3709 58.85 29.4951 57.839 29.1015C57.8256 29.1081 57.8117 29.1149 57.7973 29.1218C57.6243 29.2041 57.3778 29.3028 57.0804 29.3689C56.514 29.4947 55.7479 29.5037 54.976 29.0442C54.7039 29.0449 54.4679 29.0472 54.2615 29.0496C54.2204 29.0501 54.1804 29.0506 54.1414 29.051C53.952 29.0533 53.7867 29.0553 53.644 29.0553C53.3149 29.0553 53.0393 29.0468 52.8051 28.9799C52.5331 28.9022 52.3549 28.759 52.1905 28.5945C52.1272 28.5313 52.0586 28.4572 51.9876 28.3806C51.9734 28.3652 51.9591 28.3498 51.9447 28.3343C51.8913 28.2767 51.8329 28.2143 51.7672 28.146C51.4118 28.1456 51.0977 28.1427 50.827 28.1239C50.5042 28.1013 50.2006 28.054 49.9282 27.9373C49.4229 27.7208 49.1409 27.3182 48.9239 26.7739C48.2247 26.676 47.5658 26.3004 47.1489 25.7644C46.6884 25.1722 46.5218 24.3729 46.9237 23.5803C46.1067 21.7135 46.7123 20.1169 47.538 19.2569L48.9588 16.8889L56.0161 15.0069ZM56.0196 16.041L49.6079 17.7507L48.3335 19.8747L48.29 19.9182C47.6785 20.5298 47.1424 21.7972 47.9347 23.3818L48.0645 23.6413L47.9035 23.8827C47.5873 24.357 47.6621 24.7953 47.9383 25.1504C48.2361 25.5334 48.7638 25.7992 49.2834 25.7992H49.6437L49.7577 26.1411C49.9715 26.7825 50.1353 26.9381 50.3221 27.0182C50.4427 27.0698 50.6161 27.1067 50.8966 27.1263C51.177 27.1458 51.522 27.1461 51.9772 27.1461H52.1843L52.3307 27.2926C52.4717 27.4336 52.5845 27.5537 52.6775 27.6538C52.6945 27.6721 52.7105 27.6894 52.7257 27.7058C52.7965 27.7822 52.8491 27.839 52.8976 27.8874C53.0025 27.9923 53.0375 28.0063 53.0798 28.0184C53.1599 28.0413 53.2996 28.0553 53.644 28.0553C53.7802 28.0553 53.9381 28.0534 54.1275 28.0511C54.1669 28.0507 54.2077 28.0502 54.2499 28.0497C54.4934 28.0469 54.7804 28.0441 55.12 28.0441H55.2713L55.3973 28.128C55.9279 28.4817 56.4523 28.4841 56.8635 28.3927C57.0712 28.3465 57.2456 28.2768 57.3673 28.2189C57.4277 28.1901 57.4739 28.1649 57.5031 28.1479C57.5178 28.1395 57.5281 28.1332 57.5337 28.1297L57.5384 28.1267L57.7779 27.9671L58.0374 28.0968C58.7615 28.4589 59.8602 28.415 61.2843 28.059L61.3852 28.0338L61.4877 28.0509C62.8567 28.279 63.1804 28.2485 63.38 28.182C63.4602 28.1552 63.5149 28.1276 63.6037 28.0828C63.6631 28.0528 63.7379 28.0151 63.8458 27.9647C64.0843 27.8534 64.3951 27.7302 64.876 27.61L64.9973 27.5797L65.1186 27.61C66.7841 28.0264 67.4884 27.5907 67.7865 27.2926L67.933 27.1461H68.1401C68.4841 27.1461 68.7401 27.1457 68.952 27.127C69.1605 27.1086 69.2867 27.075 69.3756 27.0305C69.5248 26.956 69.6949 26.7883 69.9106 26.1411L70.0246 25.7992H70.3849C70.6947 25.7992 71.0999 25.635 71.3318 25.3257C71.5331 25.0574 71.6665 24.5927 71.2846 23.829L71.1235 23.5067L71.3783 23.2518C72.0494 22.5807 72.0364 22.3517 72.0172 22.2612C72.0003 22.1814 71.9483 22.0747 71.8151 21.885C71.7769 21.8305 71.7257 21.7611 71.6676 21.6824C71.5605 21.5371 71.4302 21.3604 71.3158 21.1889L71.1444 20.9318L71.2977 20.6635C71.346 20.579 71.3647 20.4571 71.2729 20.2596C71.1768 20.0531 70.9746 19.8079 70.6632 19.5677C70.0415 19.0882 69.1 18.7178 68.1401 18.7178C66.9915 18.7178 64.9094 18.2885 62.6692 17.7498C61.0215 17.3536 59.2462 16.8872 57.6254 16.4614C57.0681 16.3149 56.529 16.1733 56.0196 16.041Z" fill="black"/>
<path d="M56.4669 11.0343C51.5282 10.5853 47.7569 14.626 46.1406 18.6667C45.2426 20.9116 48.7473 22.9152 53.7731 19.5647C56.4669 17.7688 60.9566 19.1157 65.8952 20.0136C70.8339 20.9116 72.1808 19.1157 73.0787 17.7688C73.9767 16.4219 70.8339 14.177 67.6911 14.626C64.5483 15.075 62.8687 11.6162 56.4669 11.0343Z" fill="#F37268"/>
<path fill-rule="evenodd" clip-rule="evenodd" d="M56.4216 11.5322C51.809 11.1129 48.1868 14.8975 46.6048 18.8524C46.4357 19.2753 46.4805 19.6533 46.6721 19.961C46.8701 20.2791 47.2585 20.573 47.8615 20.7301C49.0689 21.0447 51.0543 20.7763 53.4957 19.1486C54.9962 18.1483 56.9449 18.0547 59.0461 18.2819C60.4718 18.436 62.041 18.749 63.6622 19.0723C64.428 19.225 65.2054 19.38 65.9847 19.5217C68.3929 19.9596 69.8486 19.7262 70.7882 19.2812C71.7241 18.8379 72.2221 18.1524 72.6627 17.4914C72.7536 17.3551 72.7767 17.1711 72.6203 16.8885C72.4571 16.5939 72.1236 16.2564 71.6332 15.9467C70.6561 15.3296 69.2032 14.9151 67.7618 15.121C66.135 15.3534 64.8466 14.6414 63.4405 13.8642C63.3152 13.795 63.1889 13.7252 63.0614 13.6555C61.4745 12.7885 59.5242 11.8142 56.4216 11.5322ZM45.6763 18.481C47.327 14.3545 51.2474 10.0577 56.5121 10.5363C59.8114 10.8362 61.9018 11.8824 63.5409 12.778C63.6496 12.8373 63.7556 12.8956 63.8592 12.9525C65.3456 13.7687 66.3388 14.3141 67.6204 14.131C69.3219 13.888 71.0117 14.3714 72.1672 15.1012C72.7431 15.4649 73.2233 15.9132 73.4951 16.4042C73.7737 16.9074 73.8529 17.509 73.4948 18.0461C73.0375 18.7321 72.4131 19.618 71.2163 20.1849C70.0233 20.75 68.3363 20.9657 65.8058 20.5056C64.9841 20.3562 64.1844 20.1966 63.4083 20.0417C61.8143 19.7236 60.3199 19.4254 58.9386 19.2761C56.8868 19.0543 55.2438 19.1851 54.0504 19.9807C51.466 21.7036 49.1862 22.1086 47.6094 21.6978C46.8202 21.4922 46.1867 21.0737 45.8231 20.4895C45.453 19.8948 45.3965 19.1806 45.6763 18.481Z" fill="black"/>
<path fill-rule="evenodd" clip-rule="evenodd" d="M67.2092 14.3486C67.3624 14.5784 67.3003 14.8888 67.0705 15.042C66.9226 15.1406 66.7562 15.3309 66.7109 15.5556C66.6729 15.7433 66.6969 16.0674 67.1467 16.5173C67.342 16.7126 67.342 17.0291 67.1467 17.2244C66.9515 17.4197 66.6349 17.4197 66.4396 17.2244C65.812 16.5967 65.6114 15.9481 65.7306 15.3576C65.8424 14.8041 66.2148 14.4107 66.5158 14.21C66.7456 14.0568 67.056 14.1189 67.2092 14.3486Z" fill="black"/>
<path fill-rule="evenodd" clip-rule="evenodd" d="M50.9542 12.8631C51.184 13.0162 51.246 13.3267 51.0929 13.5564C50.8175 13.9695 50.4667 14.6539 50.3116 15.3421C50.153 16.0451 50.2252 16.61 50.5814 16.9663C50.7767 17.1615 50.7767 17.4781 50.5814 17.6734C50.3862 17.8686 50.0696 17.8686 49.8743 17.6734C49.153 16.9521 49.1503 15.9456 49.336 15.1221C49.5251 14.2838 49.9375 13.4867 50.2608 13.0017C50.414 12.772 50.7244 12.7099 50.9542 12.8631Z" fill="black"/>
<path fill-rule="evenodd" clip-rule="evenodd" d="M54.6799 11.3057C54.9213 11.4399 55.0083 11.7443 54.8742 11.9856C54.5179 12.6269 54.0092 13.752 53.946 14.7149C53.8842 15.6554 54.1367 16.609 55.0676 17.3847C55.2797 17.5615 55.3084 17.8768 55.1316 18.0889C54.9548 18.301 54.6395 18.3297 54.4274 18.1529C53.2032 17.1327 52.8699 15.8415 52.9481 14.6494C53.0249 13.4797 53.608 12.2057 54 11.5C54.1341 11.2586 54.4385 11.1716 54.6799 11.3057Z" fill="black"/>
<path fill-rule="evenodd" clip-rule="evenodd" d="M60.0097 11.6322C60.1754 11.8531 60.1306 12.1665 59.9097 12.3322C59.7373 12.4615 59.409 12.9047 59.369 13.5674C59.3308 14.199 59.5554 15.0749 60.5489 16.0683C60.7441 16.2636 60.7441 16.5802 60.5489 16.7754C60.3536 16.9707 60.037 16.9707 59.8418 16.7754C58.6802 15.6138 58.3126 14.4694 58.3708 13.5071C58.427 12.5759 58.8834 11.8519 59.3097 11.5322C59.5306 11.3665 59.844 11.4113 60.0097 11.6322ZM61.9157 14.3454C61.9157 13.6011 62.3477 12.7791 63.2014 12.7791C63.4776 12.7791 63.7014 13.003 63.7014 13.2791C63.7014 13.5552 63.4776 13.7791 63.2014 13.7791C63.1572 13.7791 62.9157 13.855 62.9157 14.3454C62.9157 14.7778 63.1546 15.425 63.9504 16.0219C64.1713 16.1876 64.2161 16.501 64.0504 16.7219C63.8847 16.9428 63.5713 16.9876 63.3504 16.8219C62.3503 16.0719 61.9157 15.1477 61.9157 14.3454Z" fill="black"/>
<path d="M55.8448 22.0122C55.6763 22.1941 55.3923 22.205 55.2103 22.0366L54.5515 21.4265C54.3695 21.2581 54.3586 20.974 54.5271 20.792V20.792C54.6955 20.6101 54.9796 20.5992 55.1615 20.7676L55.8204 21.3777C56.0023 21.5462 56.0133 21.8302 55.8448 22.0122V22.0122Z" fill="black"/>
<path d="M59.7337 21.1027C59.7837 20.8599 60.0211 20.7035 60.264 20.7536L61.1435 20.9348C61.3863 20.9849 61.5426 21.2223 61.4926 21.4652V21.4652C61.4425 21.708 61.2051 21.8643 60.9622 21.8143L60.0828 21.6331C59.8399 21.583 59.6836 21.3456 59.7337 21.1027V21.1027Z" fill="black"/>
<path d="M62.7908 24.7905C62.5663 24.8959 62.2989 24.7994 62.1935 24.575L61.8117 23.7623C61.7063 23.5378 61.8028 23.2704 62.0272 23.165V23.165C62.2516 23.0596 62.519 23.1561 62.6245 23.3805L63.0062 24.1932C63.1117 24.4177 63.0152 24.6851 62.7908 24.7905V24.7905Z" fill="black"/>
<path d="M65.4515 21.4715C65.6477 21.3198 65.9296 21.3559 66.0813 21.5521L66.6306 22.2624C66.7822 22.4586 66.7462 22.7406 66.55 22.8922V22.8922C66.3538 23.0439 66.0719 23.0078 65.9202 22.8117L65.3709 22.1013C65.2193 21.9052 65.2553 21.6232 65.4515 21.4715V21.4715Z" fill="black"/>
<path d="M60.6542 26.94C60.58 26.7034 60.7118 26.4514 60.9484 26.3773L61.8053 26.1089C62.0419 26.0348 62.2938 26.1665 62.3679 26.4031V26.4031C62.4421 26.6398 62.3103 26.8917 62.0737 26.9658L61.2168 27.2342C60.9802 27.3083 60.7283 27.1766 60.6542 26.94V26.94Z" fill="black"/>
<path d="M58.2123 24.9248C58.4467 25.0057 58.5711 25.2613 58.4902 25.4957L58.1972 26.3445C58.1163 26.5789 57.8607 26.7033 57.6263 26.6224V26.6224C57.3919 26.5415 57.2675 26.2859 57.3484 26.0515L57.6414 25.2027C57.7223 24.9683 57.9779 24.8439 58.2123 24.9248V24.9248Z" fill="black"/>
<path d="M57.1289 23.506C57.0112 23.2877 57.0928 23.0154 57.311 22.8977L58.1014 22.4716C58.3197 22.3539 58.592 22.4354 58.7097 22.6537V22.6537C58.8274 22.8719 58.7458 23.1443 58.5276 23.2619L57.7372 23.6881C57.5189 23.8058 57.2466 23.7242 57.1289 23.506V23.506Z" fill="black"/>
<path d="M53.4525 26.4699C53.5082 26.2283 53.7492 26.0776 53.9909 26.1332L54.8659 26.3349C55.1075 26.3906 55.2582 26.6316 55.2025 26.8732V26.8732C55.1469 27.1148 54.9058 27.2656 54.6642 27.2099L53.7892 27.0082C53.5476 26.9526 53.3969 26.7115 53.4525 26.4699V26.4699Z" fill="black"/>
<path d="M52.0888 24.7589C51.8731 24.6366 51.7974 24.3626 51.9197 24.1469L52.3625 23.3658C52.4848 23.1501 52.7588 23.0743 52.9745 23.1966V23.1966C53.1902 23.3189 53.2659 23.5929 53.1437 23.8086L52.7008 24.5897C52.5785 24.8055 52.3045 24.8812 52.0888 24.7589V24.7589Z" fill="black"/>
<path d="M49.788 24.0861C49.5541 24.1685 49.2978 24.0456 49.2154 23.8117L48.9173 22.9647C48.835 22.7308 48.9579 22.4744 49.1918 22.3921V22.3921C49.4257 22.3098 49.682 22.4327 49.7643 22.6666L50.0624 23.5136C50.1448 23.7475 50.0219 24.0038 49.788 24.0861V24.0861Z" fill="black"/>
<path d="M64.2844 25.4041C64.3865 25.1781 64.6524 25.0776 64.8784 25.1797L65.6968 25.5492C65.9227 25.6513 66.0232 25.9172 65.9212 26.1432V26.1432C65.8191 26.3692 65.5532 26.4696 65.3272 26.3676L64.5088 25.998C64.2829 25.896 64.1824 25.6301 64.2844 25.4041V25.4041Z" fill="black"/>
<path d="M68.1654 26.4991C67.9651 26.3529 67.9211 26.0721 68.0672 25.8718L68.5964 25.1463C68.7426 24.946 69.0234 24.9021 69.2237 25.0482V25.0482C69.4241 25.1943 69.468 25.4752 69.3219 25.6755L68.7927 26.4009C68.6466 26.6013 68.3657 26.6452 68.1654 26.4991V26.4991Z" fill="black"/>
<path d="M68.8617 21.6602C69.0057 21.4584 69.2861 21.4115 69.4879 21.5556L70.2188 22.0773C70.4206 22.2214 70.4674 22.5017 70.3233 22.7036V22.7036C70.1793 22.9054 69.8989 22.9522 69.6971 22.8081L68.9662 22.2864C68.7644 22.1424 68.7176 21.862 68.8617 21.6602V21.6602Z" fill="black"/>
<path d="M155 20C155 28.2843 148.284 35 140 35C131.716 35 125 28.2843 125 20C125 11.7157 131.716 5 140 5C148.284 5 155 11.7157 155 20Z" fill="#DE8F47"/>
<path fill-rule="evenodd" clip-rule="evenodd" d="M140 34C147.732 34 154 27.732 154 20C154 12.268 147.732 6 140 6C132.268 6 126 12.268 126 20C126 27.732 132.268 34 140 34ZM140 35C148.284 35 155 28.2843 155 20C155 11.7157 148.284 5 140 5C131.716 5 125 11.7157 125 20C125 28.2843 131.716 35 140 35Z" fill="black"/>
<path d="M152 20C152 26.6274 146.627 32 140 32C133.373 32 128 26.6274 128 20C128 13.3726 133.373 8 140 8C146.627 8 152 13.3726 152 20Z" fill="#ECC570"/>
<path fill-rule="evenodd" clip-rule="evenodd" d="M140 31C146.075 31 151 26.0751 151 20C151 13.9249 146.075 9 140 9C133.925 9 129 13.9249 129 20C129 26.0751 133.925 31 140 31ZM140 32C146.627 32 152 26.6274 152 20C152 13.3726 146.627 8 140 8C133.373 8 128 13.3726 128 20C128 26.6274 133.373 32 140 32Z" fill="black"/>
<path d="M132 17C132 16.4477 132.448 16 133 16V16C133.552 16 134 16.4477 134 17V17C134 17.5523 133.552 18 133 18V18C132.448 18 132 17.5523 132 17V17Z" fill="#C23516"/>
<path fill-rule="evenodd" clip-rule="evenodd" d="M133 19C131.895 19 131 18.1046 131 17C131 15.8954 131.895 15 133 15C134.105 15 135 15.8954 135 17C135 18.1046 134.105 19 133 19ZM133 16C132.448 16 132 16.4477 132 17C132 17.5523 132.448 18 133 18C133.552 18 134 17.5523 134 17C134 16.4477 133.552 16 133 16Z" fill="black"/>
<path d="M136 28C136 27.4477 136.448 27 137 27V27C137.552 27 138 27.4477 138 28V28C138 28.5523 137.552 29 137 29V29C136.448 29 136 28.5523 136 28V28Z" fill="#C23516"/>
<path fill-rule="evenodd" clip-rule="evenodd" d="M137 30C135.895 30 135 29.1046 135 28C135 26.8954 135.895 26 137 26C138.105 26 139 26.8954 139 28C139 29.1046 138.105 30 137 30ZM137 27C136.448 27 136 27.4477 136 28C136 28.5523 136.448 29 137 29C137.552 29 138 28.5523 138 28C138 27.4477 137.552 27 137 27Z" fill="black"/>
<path d="M132 23C132 22.4477 132.448 22 133 22V22C133.552 22 134 22.4477 134 23V23C134 23.5523 133.552 24 133 24V24C132.448 24 132 23.5523 132 23V23Z" fill="#C23516"/>
<path fill-rule="evenodd" clip-rule="evenodd" d="M133 25C131.895 25 131 24.1046 131 23C131 21.8954 131.895 21 133 21C134.105 21 135 21.8954 135 23C135 24.1046 134.105 25 133 25ZM133 22C132.448 22 132 22.4477 132 23C132 23.5523 132.448 24 133 24C133.552 24 134 23.5523 134 23C134 22.4477 133.552 22 133 22Z" fill="black"/>
<path d="M146 23C146 22.4477 146.448 22 147 22V22C147.552 22 148 22.4477 148 23V23C148 23.5523 147.552 24 147 24V24C146.448 24 146 23.5523 146 23V23Z" fill="#C23516"/>
<path fill-rule="evenodd" clip-rule="evenodd" d="M147 25C145.895 25 145 24.1046 145 23C145 21.8954 145.895 21 147 21C148.105 21 149 21.8954 149 23C149 24.1046 148.105 25 147 25ZM147 22C146.448 22 146 22.4477 146 23C146 23.5523 146.448 24 147 24C147.552 24 148 23.5523 148 23C148 22.4477 147.552 22 147 22Z" fill="black"/>
<path d="M147 17C147 16.4477 147.448 16 148 16V16C148.552 16 149 16.4477 149 17V17C149 17.5523 148.552 18 148 18V18C147.448 18 147 17.5523 147 17V17Z" fill="#C23516"/>
<path fill-rule="evenodd" clip-rule="evenodd" d="M148 19C146.895 19 146 18.1046 146 17C146 15.8954 146.895 15 148 15C149.105 15 150 15.8954 150 17C150 18.1046 149.105 19 148 19ZM148 16C147.448 16 147 16.4477 147 17C147 17.5523 147.448 18 148 18C148.552 18 149 17.5523 149 17C149 16.4477 148.552 16 148 16Z" fill="black"/>
<path d="M142 12C142 11.4477 142.448 11 143 11V11C143.552 11 144 11.4477 144 12V12C144 12.5523 143.552 13 143 13V13C142.448 13 142 12.5523 142 12V12Z" fill="#C23516"/>
<path fill-rule="evenodd" clip-rule="evenodd" d="M143 14C141.895 14 141 13.1046 141 12C141 10.8954 141.895 10 143 10C144.105 10 145 10.8954 145 12C145 13.1046 144.105 14 143 14ZM143 11C142.448 11 142 11.4477 142 12C142 12.5523 142.448 13 143 13C143.552 13 144 12.5523 144 12C144 11.4477 143.552 11 143 11Z" fill="black"/>
<path d="M142 28C142 27.4477 142.448 27 143 27V27C143.552 27 144 27.4477 144 28V28C144 28.5523 143.552 29 143 29V29C142.448 29 142 28.5523 142 28V28Z" fill="#C23516"/>
<path fill-rule="evenodd" clip-rule="evenodd" d="M143 30C141.895 30 141 29.1046 141 28C141 26.8954 141.895 26 143 26C144.105 26 145 26.8954 145 28C145 29.1046 144.105 30 143 30ZM143 27C142.448 27 142 27.4477 142 28C142 28.5523 142.448 29 143 29C143.552 29 144 28.5523 144 28C144 27.4477 143.552 27 143 27Z" fill="black"/>
<path d="M136 12C136 11.4477 136.448 11 137 11V11C137.552 11 138 11.4477 138 12V12C138 12.5523 137.552 13 137 13V13C136.448 13 136 12.5523 136 12V12Z" fill="#C23516"/>
<path fill-rule="evenodd" clip-rule="evenodd" d="M137 14C135.895 14 135 13.1046 135 12C135 10.8954 135.895 10 137 10C138.105 10 139 10.8954 139 12C139 13.1046 138.105 14 137 14ZM137 11C136.448 11 136 11.4477 136 12C136 12.5523 136.448 13 137 13C137.552 13 138 12.5523 138 12C138 11.4477 137.552 11 137 11Z" fill="black"/>
<path fill-rule="evenodd" clip-rule="evenodd" d="M139.5 34V5H140.5V34H139.5Z" fill="black"/>
<path fill-rule="evenodd" clip-rule="evenodd" d="M149.541 31.5759L129.716 9.59379L130.459 8.92406L150.284 30.9062L149.541 31.5759Z" fill="black"/>
<path fill-rule="evenodd" clip-rule="evenodd" d="M130.459 31.5759L150.284 9.59379L149.541 8.92406L129.716 30.9062L130.459 31.5759Z" fill="black"/>
<path fill-rule="evenodd" clip-rule="evenodd" d="M154.5 20.5H125V19.5H154.5V20.5Z" fill="black"/>
<path d="M92 8.34206H95V18.3421H92V8.34206Z" fill="#9A5B20"/>
<path fill-rule="evenodd" clip-rule="evenodd" d="M94 9.34206H93V17.3421H94V9.34206ZM92 8.34206V18.3421H95V8.34206H92Z" fill="black"/>
<path d="M95 8.34206H98V18.3421H95V8.34206Z" fill="#9A5B20"/>
<path fill-rule="evenodd" clip-rule="evenodd" d="M97 9.34206H96V17.3421H97V9.34206ZM95 8.34206V18.3421H98V8.34206H95Z" fill="black"/>
<path d="M98 8.34206H101V18.3421H98V8.34206Z" fill="#9A5B20"/>
<path fill-rule="evenodd" clip-rule="evenodd" d="M100 9.34206H99V17.3421H100V9.34206ZM98 8.34206V18.3421H101V8.34206H98Z" fill="black"/>
<path d="M104 19.3421C104 22.1035 101.761 24.3421 99 24.3421C96.2386 24.3421 94 22.1035 94 19.3421C94 16.5806 96.2386 14.3421 99 14.3421C101.761 14.3421 104 16.5806 104 19.3421Z" fill="#9A5B20"/>
<path fill-rule="evenodd" clip-rule="evenodd" d="M99 23.3421C101.209 23.3421 103 21.5512 103 19.3421C103 17.1329 101.209 15.3421 99 15.3421C96.7909 15.3421 95 17.1329 95 19.3421C95 21.5512 96.7909 23.3421 99 23.3421ZM99 24.3421C101.761 24.3421 104 22.1035 104 19.3421C104 16.5806 101.761 14.3421 99 14.3421C96.2386 14.3421 94 16.5806 94 19.3421C94 22.1035 96.2386 24.3421 99 24.3421Z" fill="black"/>
<path d="M102 19.3421C102 20.9989 100.657 22.3421 99 22.3421C97.3431 22.3421 96 20.9989 96 19.3421C96 17.6852 97.3431 16.3421 99 16.3421C100.657 16.3421 102 17.6852 102 19.3421Z" fill="#9A5B20"/>
<path fill-rule="evenodd" clip-rule="evenodd" d="M99 21.3421C100.105 21.3421 101 20.4466 101 19.3421C101 18.2375 100.105 17.3421 99 17.3421C97.8954 17.3421 97 18.2375 97 19.3421C97 20.4466 97.8954 21.3421 99 21.3421ZM99 22.3421C100.657 22.3421 102 20.9989 102 19.3421C102 17.6852 100.657 16.3421 99 16.3421C97.3431 16.3421 96 17.6852 96 19.3421C96 20.9989 97.3431 22.3421 99 22.3421Z" fill="black"/>
<path d="M99 22.3421C99 25.1035 96.7614 27.3421 94 27.3421C91.2386 27.3421 89 25.1035 89 22.3421C89 19.5806 91.2386 17.3421 94 17.3421C96.7614 17.3421 99 19.5806 99 22.3421Z" fill="#9A5B20"/>
<path fill-rule="evenodd" clip-rule="evenodd" d="M94 26.3421C96.2091 26.3421 98 24.5512 98 22.3421C98 20.1329 96.2091 18.3421 94 18.3421C91.7909 18.3421 90 20.1329 90 22.3421C90 24.5512 91.7909 26.3421 94 26.3421ZM94 27.3421C96.7614 27.3421 99 25.1035 99 22.3421C99 19.5806 96.7614 17.3421 94 17.3421C91.2386 17.3421 89 19.5806 89 22.3421C89 25.1035 91.2386 27.3421 94 27.3421Z" fill="black"/>
<path d="M97 22.3421C97 23.9989 95.6569 25.3421 94 25.3421C92.3431 25.3421 91 23.9989 91 22.3421C91 20.6852 92.3431 19.3421 94 19.3421C95.6569 19.3421 97 20.6852 97 22.3421Z" fill="#9A5B20"/>
<path fill-rule="evenodd" clip-rule="evenodd" d="M94 24.3421C95.1046 24.3421 96 23.4466 96 22.3421C96 21.2375 95.1046 20.3421 94 20.3421C92.8954 20.3421 92 21.2375 92 22.3421C92 23.4466 92.8954 24.3421 94 24.3421ZM94 25.3421C95.6569 25.3421 97 23.9989 97 22.3421C97 20.6852 95.6569 19.3421 94 19.3421C92.3431 19.3421 91 20.6852 91 22.3421C91 23.9989 92.3431 25.3421 94 25.3421Z" fill="black"/>
<path d="M109 22.3421C109 25.1035 106.761 27.3421 104 27.3421C101.239 27.3421 99 25.1035 99 22.3421C99 19.5806 101.239 17.3421 104 17.3421C106.761 17.3421 109 19.5806 109 22.3421Z" fill="#9A5B20"/>
<path fill-rule="evenodd" clip-rule="evenodd" d="M104 26.3421C106.209 26.3421 108 24.5512 108 22.3421C108 20.1329 106.209 18.3421 104 18.3421C101.791 18.3421 100 20.1329 100 22.3421C100 24.5512 101.791 26.3421 104 26.3421ZM104 27.3421C106.761 27.3421 109 25.1035 109 22.3421C109 19.5806 106.761 17.3421 104 17.3421C101.239 17.3421 99 19.5806 99 22.3421C99 25.1035 101.239 27.3421 104 27.3421Z" fill="black"/>
<path d="M107 22.3421C107 23.9989 105.657 25.3421 104 25.3421C102.343 25.3421 101 23.9989 101 22.3421C101 20.6852 102.343 19.3421 104 19.3421C105.657 19.3421 107 20.6852 107 22.3421Z" fill="#9A5B20"/>
<path fill-rule="evenodd" clip-rule="evenodd" d="M104 24.3421C105.105 24.3421 106 23.4466 106 22.3421C106 21.2375 105.105 20.3421 104 20.3421C102.895 20.3421 102 21.2375 102 22.3421C102 23.4466 102.895 24.3421 104 24.3421ZM104 25.3421C105.657 25.3421 107 23.9989 107 22.3421C107 20.6852 105.657 19.3421 104 19.3421C102.343 19.3421 101 20.6852 101 22.3421C101 23.9989 102.343 25.3421 104 25.3421Z" fill="black"/>
<path d="M92 9.84206C92 9.01363 92.6716 8.34206 93.5 8.34206H110.5C111.328 8.34206 112 9.01363 112 9.84206V9.84206C112 10.6705 111.328 11.3421 110.5 11.3421H93.5C92.6716 11.3421 92 10.6705 92 9.84206V9.84206Z" fill="#CDA372"/>
<path fill-rule="evenodd" clip-rule="evenodd" d="M110.5 9.34206H93.5C93.2239 9.34206 93 9.56591 93 9.84206C93 10.1182 93.2239 10.3421 93.5 10.3421H110.5C110.776 10.3421 111 10.1182 111 9.84206C111 9.56591 110.776 9.34206 110.5 9.34206ZM93.5 8.34206C92.6716 8.34206 92 9.01363 92 9.84206C92 10.6705 92.6716 11.3421 93.5 11.3421H110.5C111.328 11.3421 112 10.6705 112 9.84206C112 9.01363 111.328 8.34206 110.5 8.34206H93.5Z" fill="black"/>
<path d="M108 9.34206H110.5C110.776 9.34206 111 9.56591 111 9.84206V9.84206C111 10.1182 110.776 10.3421 110.5 10.3421H108V9.34206Z" fill="#CF3939"/>
<path d="M92.2309 11.2857C92.073 10.4725 92.6042 9.6852 93.4174 9.52725L110.106 6.286C110.919 6.12805 111.706 6.65926 111.864 7.47249V7.47249C112.022 8.28572 111.491 9.07302 110.678 9.23097L93.9894 12.4722C93.1762 12.6302 92.3889 12.099 92.2309 11.2857V11.2857Z" fill="#CDA372"/>
<path fill-rule="evenodd" clip-rule="evenodd" d="M110.296 7.26766L93.6081 10.5089C93.337 10.5616 93.1599 10.824 93.2126 11.0951C93.2652 11.3661 93.5277 11.5432 93.7987 11.4906L110.487 8.24931C110.758 8.19666 110.935 7.93423 110.882 7.66315C110.83 7.39208 110.567 7.21501 110.296 7.26766ZM93.4174 9.52725C92.6042 9.6852 92.073 10.4725 92.2309 11.2857C92.3889 12.099 93.1762 12.6302 93.9894 12.4722L110.678 9.23097C111.491 9.07302 112.022 8.28572 111.864 7.47249C111.706 6.65926 110.919 6.12805 110.106 6.286L93.4174 9.52725Z" fill="black"/>
<path d="M107.842 7.74431L110.296 7.26765C110.567 7.215 110.83 7.39207 110.882 7.66315V7.66315C110.935 7.93423 110.758 8.19666 110.487 8.24931L108.033 8.72596L107.842 7.74431Z" fill="#CF3939"/>
<path d="M93 31.842C93 30.4613 94.0745 29.342 95.4 29.342H102.6C103.925 29.342 105 30.4613 105 31.842V31.842C105 33.2228 103.925 34.342 102.6 34.342H95.4C94.0745 34.342 93 33.2228 93 31.842V31.842Z" fill="#D8F9F9"/>
<path fill-rule="evenodd" clip-rule="evenodd" d="M102.6 30.3837H95.4C94.6268 30.3837 94 31.0366 94 31.842C94 32.6475 94.6268 33.3004 95.4 33.3004H102.6C103.373 33.3004 104 32.6475 104 31.842C104 31.0366 103.373 30.3837 102.6 30.3837ZM95.4 29.342C94.0745 29.342 93 30.4613 93 31.842C93 33.2228 94.0745 34.342 95.4 34.342H102.6C103.925 34.342 105 33.2228 105 31.842C105 30.4613 103.925 29.342 102.6 29.342H95.4Z" fill="black"/>
<path d="M87 23.0617C87 22.4859 87.4849 22.0287 88.0598 22.0612C90.4242 22.1947 96.1459 22.5 99 22.5C101.854 22.5 107.576 22.1947 109.94 22.0612C110.515 22.0287 111 22.4859 111 23.0617V24C111 28.4183 107.418 32 103 32H95C90.5817 32 87 28.4183 87 24V23.0617Z" fill="#D8F9F9"/>
<path fill-rule="evenodd" clip-rule="evenodd" d="M110 24V23.0617C110 23.0616 110 23.0614 110 23.0613C110 23.0611 110 23.0609 109.999 23.0607C109.999 23.0601 109.998 23.0598 109.998 23.0596C109.998 23.0596 109.997 23.0596 109.997 23.0596C107.642 23.1925 101.888 23.5 99 23.5C96.1116 23.5 90.3583 23.1925 88.0035 23.0596C88.0028 23.0596 88.0023 23.0596 88.002 23.0596C88.0017 23.0598 88.0012 23.0601 88.0006 23.0607C88.0004 23.0609 88.0002 23.0611 88 23.0613C88 23.0614 88 23.0616 88 23.0617V24C88 27.866 91.134 31 95 31H103C106.866 31 110 27.866 110 24ZM88.0598 22.0612C87.4849 22.0287 87 22.4859 87 23.0617V24C87 28.4183 90.5817 32 95 32H103C107.418 32 111 28.4183 111 24V23.0617C111 22.4859 110.515 22.0287 109.94 22.0612C107.576 22.1947 101.854 22.5 99 22.5C96.1459 22.5 90.4242 22.1947 88.0598 22.0612Z" fill="black"/>
<path d="M223.723 12.7447H230.872C231.977 12.7447 232.872 13.6401 232.872 14.7447V14.9787C232.872 18.2924 230.186 20.9787 226.872 20.9787H223.723V12.7447Z" fill="#F1F1F1"/>
<path fill-rule="evenodd" clip-rule="evenodd" d="M230.872 13.7447H224.723V19.9787H226.872C229.634 19.9787 231.872 17.7402 231.872 14.9787V14.7447C231.872 14.1924 231.425 13.7447 230.872 13.7447ZM223.723 12.7447V20.9787H226.872C230.186 20.9787 232.872 18.2924 232.872 14.9787V14.7447C232.872 13.6401 231.977 12.7447 230.872 12.7447H223.723Z" fill="black"/>
<path d="M225.553 14.5745H230.128C230.633 14.5745 231.043 14.9841 231.043 15.4894V15.4894C231.043 17.5105 229.404 19.1489 227.383 19.1489H225.553V14.5745Z" fill="white"/>
<path fill-rule="evenodd" clip-rule="evenodd" d="M230.041 15.5745H226.553V18.1489H227.383C228.823 18.1489 229.996 17.0039 230.041 15.5745ZM225.553 14.5745V19.1489H227.383C229.404 19.1489 231.043 17.5105 231.043 15.4894C231.043 14.9841 230.633 14.5745 230.128 14.5745H225.553Z" fill="black"/>
<path d="M210 12C210 10.8954 210.895 10 212 10H226.298C227.402 10 228.298 10.8954 228.298 12V19.1489C228.298 24.2018 224.202 28.2979 219.149 28.2979V28.2979C214.096 28.2979 210 24.2018 210 19.1489V12Z" fill="white"/>
<path fill-rule="evenodd" clip-rule="evenodd" d="M226.298 11H212C211.448 11 211 11.4477 211 12V19.1489C211 23.6495 214.648 27.2979 219.149 27.2979C223.649 27.2979 227.298 23.6495 227.298 19.1489V12C227.298 11.4477 226.85 11 226.298 11ZM212 10C210.895 10 210 10.8954 210 12V19.1489C210 24.2018 214.096 28.2979 219.149 28.2979C224.202 28.2979 228.298 24.2018 228.298 19.1489V12C228.298 10.8954 227.402 10 226.298 10H212Z" fill="black"/>
<path fill-rule="evenodd" clip-rule="evenodd" d="M219.993 28.2603C220.044 28.2531 220.095 28.2537 220.146 28.2621L225.635 29.177C225.808 29.2057 225.952 29.3222 226.017 29.4842C226.082 29.6463 226.058 29.8305 225.953 29.9702C225.649 30.3753 224.986 30.8784 223.963 31.2793C222.927 31.6857 221.492 32 219.606 32C217.721 32 216.286 31.6857 215.25 31.2793C214.227 30.8784 213.563 30.3753 213.26 29.9702C213.154 29.8289 213.13 29.6421 213.198 29.4789C213.265 29.3156 213.414 29.2002 213.589 29.1752L219.993 28.2603ZM214.875 30.0017C215.081 30.1169 215.326 30.2351 215.615 30.3483C216.522 30.7043 217.832 31 219.606 31C221.381 31 222.69 30.7043 223.598 30.3483C223.904 30.2282 224.162 30.1025 224.375 29.9807L220.058 29.2612L214.875 30.0017Z" fill="black"/>
<path d="M210 28.7553C210 27.9974 210.614 27.383 211.372 27.383H227.84C228.598 27.383 229.213 27.9974 229.213 28.7553V28.7553C229.213 29.5132 228.598 30.1277 227.84 30.1277H211.372C210.614 30.1277 210 29.5132 210 28.7553V28.7553Z" fill="white"/>
<path fill-rule="evenodd" clip-rule="evenodd" d="M227.84 28.383H211.372C211.167 28.383 211 28.5497 211 28.7553C211 28.961 211.167 29.1277 211.372 29.1277H227.84C228.046 29.1277 228.213 28.961 228.213 28.7553C228.213 28.5497 228.046 28.383 227.84 28.383ZM211.372 27.383C210.614 27.383 210 27.9974 210 28.7553C210 29.5132 210.614 30.1277 211.372 30.1277H227.84C228.598 30.1277 229.213 29.5132 229.213 28.7553C229.213 27.9974 228.598 27.383 227.84 27.383H211.372Z" fill="black"/>
<path d="M225.553 13.6596C225.553 14.1649 225.144 14.5745 224.638 14.5745C224.133 14.5745 223.723 14.1649 223.723 13.6596C223.723 13.1543 224.133 12.7447 224.638 12.7447C225.144 12.7447 225.553 13.1543 225.553 13.6596Z" fill="#F0F0F0"/>
<path d="M224.638 20.9787C224.133 20.9787 223.723 20.5691 223.723 20.0638L223.723 16.4043C223.723 15.899 224.133 15.4894 224.638 15.4894V15.4894C225.144 15.4894 225.553 15.899 225.553 16.4043L225.553 20.0638C225.553 20.5691 225.144 20.9787 224.638 20.9787V20.9787Z" fill="#F0F0F0"/>
</g>
<defs>
<clipPath id="clip0_22_2">
<rect width="240" height="40" fill="white"/>
</clipPath>
</defs>
</svg>
