<svg viewBox="0 0 160 120" fill="none" xmlns="http://www.w3.org/2000/svg">
<path d="M106.446 33.777C106.061 33.392 106.061 32.767 106.446 32.382L112.028 26.8C112.413 26.415 113.038 26.415 113.423 26.8C113.808 27.186 113.808 27.81 113.423 28.196L107.841 33.777C107.456 34.162 106.831 34.162 106.446 33.777Z" fill="black"/>
<path d="M131.235 61.101H118.342C117.797 61.101 117.355 60.659 117.355 60.114C117.355 59.569 117.797 59.128 118.342 59.128H131.235C131.78 59.128 132.222 59.569 132.222 60.114C132.222 60.659 131.78 61.101 131.235 61.101Z" fill="black"/>
<path d="M80.1091 112.227C79.5641 112.227 79.1221 111.785 79.1221 111.24V98.347C79.1221 97.802 79.5641 97.36 80.1091 97.36C80.6541 97.36 81.0961 97.802 81.0961 98.347V111.24C81.0951 111.786 80.6541 112.227 80.1091 112.227Z" fill="black"/>
<path d="M28.0001 60.876C27.9911 60.338 28.4141 59.891 28.9521 59.873L41.8441 59.597C42.3961 59.577 42.8561 60.014 42.8651 60.565C42.8751 61.104 42.4511 61.55 41.9131 61.569L29.0211 61.845C28.4701 61.864 28.0101 61.428 28.0001 60.876Z" fill="black"/>
<path d="M80.1091 22.868C79.5641 22.868 79.1221 22.426 79.1221 21.881V8.987C79.1221 8.442 79.5641 8 80.1091 8C80.6541 8 81.0961 8.442 81.0961 8.987V21.88C81.0951 22.425 80.6541 22.868 80.1091 22.868Z" fill="black"/>
<path d="M112.028 93.429L106.446 87.847C106.061 87.462 106.061 86.837 106.446 86.452C106.831 86.067 107.456 86.067 107.841 86.452L113.423 92.034C113.808 92.419 113.808 93.044 113.423 93.429C113.038 93.813 112.413 93.813 112.028 93.429Z" fill="black"/>
<path d="M46.7951 93.429C46.4101 93.044 46.4101 92.419 46.7951 92.034L52.3771 86.452C52.7621 86.067 53.3871 86.067 53.7721 86.452C54.1571 86.837 54.1571 87.462 53.7721 87.847L48.1901 93.429C47.8041 93.813 47.1791 93.813 46.7951 93.429Z" fill="black"/>
<path d="M52.3761 33.777L46.7941 28.196C46.4091 27.81 46.4091 27.186 46.7941 26.8C47.1791 26.415 47.8041 26.415 48.1891 26.8L53.7711 32.382C54.1561 32.767 54.1561 33.392 53.7711 33.777C53.3871 34.162 52.7621 34.162 52.3761 33.777Z" fill="black"/>
<path d="M99.455 40.768C89.236 30.549 72.887 30.133 62.152 39.491L63.363 40.703C68.163 36.558 74.128 34.457 80.109 34.457C86.682 34.457 93.256 36.958 98.26 41.963C108.268 51.971 108.268 68.256 98.26 78.265C88.251 88.274 71.967 88.273 61.958 78.265C52.42 68.726 52.004 53.506 60.646 43.432L59.432 42.218C50.129 52.954 50.564 69.261 60.763 79.46C66.097 84.793 73.103 87.46 80.109 87.46C87.115 87.46 94.121 84.793 99.455 79.46C110.122 68.792 110.122 51.435 99.455 40.768Z" fill="black"/>
</svg>
