<svg  viewBox="0 0 160 120" fill="none" xmlns="http://www.w3.org/2000/svg">
<path d="M86.928 67.914C86.928 62.107 89.77 55.702 94.531 52.329C94.975 52.014 95.449 51.711 95.939 51.428C98.67 49.852 101.768 49.02 104.897 49.02C114.218 49.02 122.085 56.293 122.806 65.577L122.92 66.46L123.8 66.429C133.538 66.433 141.761 74.975 141.761 85.086C141.761 95.199 133.532 103.744 123.792 103.744C119.703 103.744 116.171 102.594 113.293 100.034L113.03 99.948H112.092L111.744 100.069C109.966 101.449 106.264 104.246 100.386 104.246C96.07 104.246 93.096 102.842 89.419 99.164L88.78 98.507L88.126 99.121C84.946 102.156 80.815 103.755 76.182 103.755C66.273 103.755 58.212 95.738 58.212 85.886C58.212 83.127 58.841 80.455 60.08 77.947C60.301 77.5 60.544 77.054 60.805 76.622C64.097 71.17 69.78 67.914 76.116 67.914C77.658 67.914 79.587 68.121 80.587 68.505V66.592C79.587 66.245 77.653 66.065 76.116 66.065C69.127 66.065 62.819 69.655 59.189 75.666C58.901 76.142 58.649 76.634 58.405 77.127C57.039 79.893 56.354 82.839 56.354 85.885C56.354 96.756 65.249 105.602 76.177 105.602C80.983 105.602 85.308 104.032 88.742 101.053C92.497 104.617 95.827 106.022 100.386 106.022C106.52 106.022 110.46 103.242 112.519 101.661C115.628 104.237 119.512 105.594 123.791 105.594C134.534 105.594 143.609 96.203 143.609 85.087C143.609 74.239 134.966 65.034 124.565 64.596C123.376 54.759 114.894 47.171 104.895 47.171C101.441 47.171 98.024 48.089 95.013 49.827C94.472 50.138 93.95 50.472 93.459 50.821C88.21 54.54 85.076 61.51 85.076 67.915C85.076 67.943 85.079 67.915 85.079 67.943" fill="black"/>
<path d="M87.3109 36.021L92.2949 31.036C92.6399 30.692 92.6399 30.134 92.2949 29.79C91.9509 29.446 91.3939 29.446 91.0489 29.79L86.0649 34.775C85.7199 35.119 85.7199 35.677 86.0649 36.021C86.4079 36.365 86.9659 36.365 87.3109 36.021Z" fill="black"/>
<path d="M28.3651 59.082L16.8501 59.328C16.3701 59.345 15.9921 59.744 16.0001 60.225C16.0091 60.717 16.4201 61.107 16.9121 61.09L28.4271 60.843C28.9071 60.827 29.2851 60.428 29.2771 59.947C29.2691 59.455 28.8581 59.065 28.3651 59.082Z" fill="black"/>
<path d="M62.5889 26.278C63.0759 26.278 63.5889 25.883 63.5889 25.397V13.881C63.5889 13.394 63.0759 13 62.5889 13C62.1019 13 61.5889 13.394 61.5889 13.881V25.397C61.5889 25.883 62.1019 26.278 62.5889 26.278Z" fill="black"/>
<path d="M39.019 83.067C38.675 82.723 38.117 82.723 37.773 83.067L32.788 88.052C32.443 88.396 32.443 88.954 32.788 89.299C33.132 89.643 33.69 89.643 34.034 89.299L39.019 84.313C39.362 83.969 39.362 83.411 39.019 83.067Z" fill="black"/>
<path d="M37.7721 36.021C38.1161 36.365 38.6741 36.365 39.0181 36.021C39.3621 35.677 39.3621 35.119 39.0181 34.775L34.0331 29.79C33.6891 29.446 33.1311 29.446 32.7871 29.79C32.4431 30.134 32.4431 30.692 32.7871 31.036L37.7721 36.021Z" fill="black"/>
<path d="M79.8199 42.265C70.6929 33.138 56.0909 32.767 46.5029 41.125L47.585 42.207C51.871 38.505 57.1989 36.628 62.5419 36.628C68.4119 36.628 74.2829 38.863 78.7529 43.332C80.3759 44.956 81.701 46.765 82.733 48.691L83.799 47.504C82.739 45.629 81.4159 43.862 79.8199 42.265Z" fill="black"/>
<path d="M46.3299 75.756C37.8109 67.237 37.4389 53.643 45.1579 44.645L44.074 43.561C35.765 53.15 36.1539 67.714 45.2629 76.823C47.5119 79.072 50.0969 80.784 52.8549 81.971L53.918 80.787C51.155 79.67 48.5669 77.993 46.3299 75.756Z" fill="black"/>
</svg>
