<svg  viewBox="0 0 160 120" fill="none" xmlns="http://www.w3.org/2000/svg">
<path d="M98.978 60.257H47.856C47.385 60.257 47 59.872 47 59.401C47 58.93 47.385 58.545 47.856 58.545H98.978C99.449 58.545 99.833 58.93 99.833 59.401C99.834 59.873 99.449 60.257 98.978 60.257Z" fill="black"/>
<path d="M104.978 68.289H57.856C57.385 68.289 57 67.904 57 67.433C57 66.962 57.385 66.577 57.856 66.577H104.978C105.449 66.577 105.833 66.962 105.833 67.433C105.833 67.904 105.449 68.289 104.978 68.289Z" fill="black"/>
<path d="M84.5219 76.32H69.4009C68.9299 76.32 68.5449 75.935 68.5449 75.464C68.5449 74.993 68.9299 74.608 69.4009 74.608H84.5219C84.9939 74.608 85.3789 74.993 85.3789 75.464C85.3789 75.935 84.9939 76.32 84.5219 76.32Z" fill="black"/>
<path d="M59.8169 44.712H103.939C104.41 44.712 104.795 44.327 104.795 43.856C104.795 43.385 104.41 43 103.939 43H59.8169V44.712Z" fill="black"/>
<path d="M48.0079 44.712H56.1288V43H48.0079C47.5369 43 47.1509 43.385 47.1509 43.856C47.1519 44.326 47.5369 44.712 48.0079 44.712Z" fill="black"/>
<path d="M57.273 52.743H112.394C112.865 52.743 113.249 52.358 113.249 51.887C113.249 51.416 112.864 51.031 112.394 51.031H57.273C56.802 51.031 56.417 51.416 56.417 51.887C56.417 52.358 56.802 52.743 57.273 52.743Z" fill="black"/>
</svg>
