<svg  viewBox="0 0 160 120" fill="none" xmlns="http://www.w3.org/2000/svg">
<path d="M86.2148 32.0431C85.8298 31.9251 85.4058 32.0542 85.1508 32.3692C84.8948 32.6842 84.8538 33.1212 85.0478 33.4782C87.1238 37.3022 88.2208 41.6382 88.2208 46.0182C88.2208 47.8452 88.0328 49.6292 87.6768 51.3522L89.4328 52.6312C89.9428 50.5082 90.2208 48.2952 90.2208 46.0182C90.2208 42.1382 89.4198 38.2882 87.8898 34.7512C97.6948 38.7282 104.361 48.4462 104.361 59.1652C104.361 73.6822 92.5498 85.4922 78.0338 85.4922C69.1678 85.4922 60.9698 81.0481 56.1108 73.7501C58.0098 74.1451 59.9468 74.3451 61.8938 74.3451C73.7948 74.3451 83.9968 66.9652 88.1848 56.5442L86.5148 55.3282C82.7448 65.2622 73.1328 72.3451 61.8938 72.3451C59.3158 72.3451 56.7558 71.9682 54.2878 71.2252C53.9008 71.1072 53.4788 71.2352 53.2248 71.5512C52.9688 71.8652 52.9278 72.3032 53.1208 72.6592C58.0868 81.8092 67.6328 87.4922 78.0328 87.4922C93.6528 87.4922 106.36 74.7852 106.36 59.1652C106.361 46.7702 98.0768 35.6181 86.2148 32.0431Z" fill="black"/>
</svg>
