<svg  viewBox="0 0 160 120" fill="none" xmlns="http://www.w3.org/2000/svg">
<path d="M82.4247 58.8792C82.4247 53.3082 85.1518 47.1621 89.7188 43.9261C90.1447 43.6241 90.5998 43.3332 91.0718 43.0622C93.6908 41.5492 96.6637 40.7502 99.6667 40.7502C108.609 40.7502 116.156 47.7291 116.85 56.6371L116.959 57.4842L117.804 57.4542C127.146 57.4582 135.037 65.6542 135.037 75.3552C135.037 85.0582 127.14 93.2562 117.796 93.2562C113.873 93.2562 110.484 92.1042 107.723 89.6482L107.47 89.5172H106.571L106.237 89.6822C104.532 91.0062 100.981 93.7142 95.3417 93.7142C91.1997 93.7142 88.3467 92.3792 84.8187 88.8502L84.2067 88.2262L83.5798 88.8181C80.5268 91.7301 76.5638 93.2662 72.1188 93.2662C62.6108 93.2662 54.8777 85.5742 54.8777 76.1222C54.8777 73.4752 55.4807 70.9112 56.6697 68.5042C56.8817 68.0762 57.1147 67.6482 57.3647 67.2342C60.5237 62.0032 65.8767 58.8792 71.9567 58.8792C73.4357 58.8792 75.1458 59.0772 76.1458 59.4462V57.6102C75.1458 57.2762 73.4297 57.1042 71.9567 57.1042C65.2497 57.1042 59.2477 60.5482 55.7657 66.3162C55.4897 66.7732 55.2718 67.2452 55.0378 67.7182C53.7268 70.3712 53.0828 73.1971 53.0828 76.1201C53.0828 86.5511 61.6237 95.0381 72.1077 95.0381C76.7187 95.0381 80.8727 93.5322 84.1667 90.6732C87.7687 94.0932 90.9658 95.4422 95.3398 95.4422C101.225 95.4422 105.007 92.7742 106.982 91.2572C109.964 93.7282 113.691 95.0312 117.797 95.0312C128.104 95.0312 136.813 86.0212 136.813 75.3552C136.813 64.9472 128.521 56.1152 118.542 55.6952C117.399 46.2562 109.263 38.9762 99.6697 38.9762C96.3547 38.9762 93.0767 39.8572 90.1877 41.5242C89.6697 41.8232 89.1678 42.1431 88.6968 42.4781C83.6618 46.0461 80.6537 52.7332 80.6537 58.8792C80.6537 58.9062 80.6567 58.8792 80.6567 58.9062" fill="black"/>
<path d="M49.0329 78.4922C40.1669 78.4922 31.9688 74.0481 27.1098 66.7491C29.0088 67.1451 30.9459 67.3452 32.8929 67.3452C44.7929 67.3452 54.9969 59.9642 59.1839 49.5442L57.5138 48.3282C53.7448 58.2622 44.1319 65.3452 32.8929 65.3452C30.3149 65.3452 27.7549 64.9682 25.2879 64.2242C24.9019 64.1072 24.4788 64.2351 24.2238 64.5511C23.9688 64.8651 23.9278 65.3031 24.1208 65.6591C29.0578 74.7531 38.5178 80.4171 48.8448 80.4861C49.0188 79.8091 49.2148 79.1431 49.4248 78.4821C49.2938 78.4841 49.1639 78.4922 49.0329 78.4922Z" fill="black"/>
<path d="M77.3598 52.1652C77.3598 39.7702 69.0758 28.6171 57.2138 25.0431C56.8298 24.9251 56.4058 25.0542 56.1518 25.3692C55.8958 25.6842 55.8548 26.1211 56.0478 26.4781C58.1238 30.3021 59.2208 34.6382 59.2208 39.0182C59.2208 40.8452 59.0328 42.6292 58.6768 44.3522L60.4338 45.6312C60.9438 43.5082 61.2208 41.2952 61.2208 39.0182C61.2208 35.1382 60.4198 31.2882 58.8898 27.7512C68.6958 31.7282 75.3608 41.4462 75.3608 52.1652C75.3608 52.7632 75.2938 52.9882 75.2938 52.9882L77.3278 53.4731C77.3278 53.4731 77.3598 52.6042 77.3598 52.1652Z" fill="black"/>
</svg>
