<svg  viewBox="0 0 160 120" fill="none" xmlns="http://www.w3.org/2000/svg">
<path d="M67.345 39.903C67.345 34.332 70.072 28.186 74.639 24.95C75.065 24.648 75.52 24.357 75.991 24.086C78.611 22.573 81.583 21.774 84.586 21.774C93.529 21.774 101.076 28.753 101.769 37.661L101.878 38.508L102.723 38.478C112.065 38.482 119.956 46.678 119.956 56.379C119.956 66.082 112.06 74.28 102.715 74.28C98.792 74.28 95.403 73.128 92.642 70.672L92.389 70.541H91.49L91.156 70.706C89.45 72.03 85.9 74.738 80.26 74.738C76.117 74.738 73.265 73.403 69.737 69.874L69.124 69.25L68.497 69.842C65.445 72.754 61.482 74.29 57.036 74.29C47.529 74.29 39.795 66.598 39.795 57.146C39.795 54.499 40.398 51.935 41.587 49.528C41.799 49.1 42.033 48.672 42.283 48.258C45.442 43.027 50.794 39.903 56.874 39.903C58.353 39.903 60.064 40.101 61.064 40.47V38.634C60.064 38.3 58.348 38.128 56.874 38.128C50.167 38.128 44.165 41.572 40.683 47.34C40.407 47.797 40.189 48.269 39.955 48.742C38.644 51.395 38 54.221 38 57.144C38 67.575 46.541 76.062 57.026 76.062C61.637 76.062 65.79 74.556 69.084 71.697C72.686 75.117 75.883 76.466 80.257 76.466C86.142 76.466 89.924 73.798 91.899 72.281C94.881 74.752 98.608 76.055 102.714 76.055C113.021 76.055 121.73 67.045 121.73 56.379C121.73 45.971 113.438 37.139 103.458 36.719C102.316 27.28 94.179 20 84.586 20C81.272 20 77.993 20.881 75.104 22.548C74.586 22.847 74.084 23.167 73.613 23.502C68.577 27.07 65.57 33.757 65.57 39.903C65.57 39.93 65.573 39.903 65.573 39.93" fill="black"/>
<path d="M54.1201 94.657C53.9872 94.7244 53.8367 94.7638 53.678 94.7648C53.1252 94.7695 52.6735 94.326 52.6683 93.7746L52.568 83.113C52.5637 82.5611 53.0064 82.1098 53.5586 82.1042C54.1109 82.0986 54.5627 82.5422 54.5683 83.0944L54.6682 93.7551C54.671 94.1473 54.4482 94.4904 54.1201 94.657Z" fill="black"/>
<path d="M67.2785 99.8974C67.1456 99.9649 66.9952 100.004 66.8364 100.005C66.2837 100.01 65.832 99.5664 65.8268 99.015L65.7264 88.3534C65.7222 87.8015 66.1648 87.3502 66.7171 87.3446C67.2694 87.339 67.7211 87.7826 67.7268 88.3349L67.8266 98.9956C67.8295 99.3878 67.6066 99.7308 67.2785 99.8974Z" fill="black"/>
<path d="M80.2785 97.8974C80.1456 97.9649 79.9952 98.0042 79.8364 98.0052C79.2837 98.0099 78.832 97.5664 78.8268 97.015L78.7264 86.3534C78.7222 85.8015 79.1648 85.3502 79.7171 85.3446C80.2694 85.339 80.7211 85.7826 80.7268 86.3349L80.8266 96.9956C80.8295 97.3878 80.6066 97.7308 80.2785 97.8974Z" fill="black"/>
<path d="M93.2785 91.8974C93.1456 91.9649 92.9952 92.0042 92.8364 92.0052C92.2837 92.0099 91.832 91.5664 91.8268 91.015L91.7264 80.3534C91.7222 79.8015 92.1648 79.3502 92.7171 79.3446C93.2694 79.339 93.7211 79.7826 93.7268 80.3349L93.8266 90.9956C93.8295 91.3878 93.6066 91.7308 93.2785 91.8974Z" fill="black"/>
<path d="M106.279 93.8974C106.146 93.9649 105.995 94.0042 105.836 94.0052C105.284 94.0099 104.832 93.5664 104.827 93.015L104.726 82.3534C104.722 81.8015 105.165 81.3502 105.717 81.3446C106.269 81.339 106.721 81.7826 106.727 82.3349L106.827 92.9956C106.829 93.3878 106.607 93.7308 106.279 93.8974Z" fill="black"/>
</svg>
