<svg  viewBox="0 0 160 120" fill="none" xmlns="http://www.w3.org/2000/svg">
<path d="M67.345 39.903C67.345 34.332 70.072 28.186 74.639 24.95C75.065 24.648 75.52 24.357 75.991 24.086C78.611 22.573 81.583 21.774 84.586 21.774C93.529 21.774 101.076 28.753 101.769 37.661L101.878 38.508L102.723 38.478C112.065 38.482 119.956 46.678 119.956 56.379C119.956 66.082 112.06 74.28 102.715 74.28C98.792 74.28 95.403 73.128 92.642 70.672L92.389 70.541H91.49L91.156 70.706C89.45 72.03 85.9 74.738 80.26 74.738C76.117 74.738 73.265 73.403 69.737 69.874L69.124 69.25L68.497 69.842C65.445 72.754 61.482 74.29 57.036 74.29C47.529 74.29 39.795 66.598 39.795 57.146C39.795 54.499 40.398 51.935 41.587 49.528C41.799 49.1 42.033 48.672 42.283 48.258C45.442 43.027 50.794 39.903 56.874 39.903C58.353 39.903 60.064 40.101 61.064 40.47V38.634C60.064 38.3 58.348 38.128 56.874 38.128C50.167 38.128 44.165 41.572 40.683 47.34C40.407 47.797 40.189 48.269 39.955 48.742C38.644 51.395 38 54.221 38 57.144C38 67.575 46.541 76.062 57.026 76.062C61.637 76.062 65.79 74.556 69.084 71.697C72.686 75.117 75.883 76.466 80.257 76.466C86.142 76.466 89.924 73.798 91.899 72.281C94.881 74.752 98.608 76.055 102.714 76.055C113.021 76.055 121.73 67.045 121.73 56.379C121.73 45.971 113.438 37.139 103.458 36.719C102.316 27.28 94.179 20 84.586 20C81.272 20 77.993 20.881 75.104 22.548C74.586 22.847 74.084 23.167 73.613 23.502C68.577 27.07 65.57 33.757 65.57 39.903C65.57 39.93 65.573 39.903 65.573 39.93" fill="black"/>
<path d="M53.0902 94.21C52.9412 94.21 52.7892 94.177 52.6472 94.106C52.1522 93.86 51.9502 93.26 52.1952 92.766L56.9322 83.214C57.1782 82.72 57.7772 82.518 58.2722 82.763C58.7672 83.008 58.9692 83.608 58.7242 84.103L53.9872 93.654C53.8122 94.005 53.4582 94.21 53.0902 94.21Z" fill="black"/>
<path d="M69.1551 94.21C69.0061 94.21 68.8541 94.177 68.7121 94.106C68.2171 93.86 68.0151 93.26 68.2601 92.766L72.9971 83.214C73.2431 82.72 73.8431 82.518 74.3371 82.763C74.8321 83.008 75.0341 83.608 74.7891 84.103L70.0521 93.654C69.8771 94.005 69.5231 94.21 69.1551 94.21Z" fill="black"/>
<path d="M85.1551 94.21C85.0061 94.21 84.8541 94.177 84.7121 94.106C84.2171 93.86 84.0151 93.26 84.2601 92.766L88.9971 83.214C89.2421 82.72 89.8431 82.518 90.3371 82.763C90.8321 83.008 91.0341 83.608 90.7891 84.103L86.0521 93.654C85.8771 94.005 85.5231 94.21 85.1551 94.21Z" fill="black"/>
<path d="M57.807 100.985C57.658 100.985 57.507 100.952 57.364 100.881C56.869 100.635 56.667 100.036 56.912 99.541L62.648 87.989C62.894 87.494 63.493 87.293 63.989 87.537C64.483 87.783 64.685 88.382 64.44 88.878L58.704 100.429C58.529 100.781 58.175 100.985 57.807 100.985Z" fill="black"/>
<path d="M89.9591 100.985C89.8101 100.985 89.6591 100.952 89.5161 100.881C89.0211 100.635 88.8191 100.035 89.0641 99.541L94.8011 87.989C95.0461 87.494 95.6461 87.293 96.1411 87.537C96.6361 87.783 96.8381 88.383 96.5931 88.878L90.8561 100.429C90.6811 100.781 90.3271 100.985 89.9591 100.985Z" fill="black"/>
<path d="M73.8832 100.985C73.7342 100.985 73.5832 100.952 73.4402 100.881C72.9452 100.635 72.7432 100.035 72.9882 99.541L78.7252 87.989C78.9712 87.494 79.5702 87.293 80.0652 87.537C80.5602 87.783 80.7622 88.383 80.5172 88.878L74.7802 100.429C74.6052 100.781 74.2512 100.985 73.8832 100.985Z" fill="black"/>
<path d="M101.155 94.21C101.006 94.21 100.854 94.177 100.712 94.106C100.217 93.86 100.015 93.26 100.26 92.766L104.997 83.214C105.243 82.72 105.842 82.518 106.337 82.763C106.832 83.008 107.034 83.608 106.789 84.103L102.052 93.654C101.877 94.005 101.523 94.21 101.155 94.21Z" fill="black"/>
</svg>
