<svg  viewBox="0 0 160 120" fill="none" xmlns="http://www.w3.org/2000/svg">
<path d="M67.343 40.903C67.343 35.332 70.07 29.186 74.637 25.95C75.063 25.648 75.518 25.357 75.99 25.086C78.609 23.573 81.582 22.774 84.585 22.774C93.527 22.774 101.074 29.7529 101.768 38.6609L101.877 39.508L102.722 39.478C112.064 39.482 119.955 47.678 119.955 57.379C119.955 67.082 112.059 75.28 102.714 75.28C98.791 75.28 95.402 74.129 92.641 71.672L92.388 71.541H91.488L91.154 71.706C89.449 73.03 85.898 75.738 80.258 75.738C76.116 75.738 73.263 74.403 69.735 70.874L69.123 70.25L68.496 70.842C65.443 73.754 61.48 75.291 57.035 75.291C47.527 75.291 39.794 67.598 39.794 58.146C39.794 55.499 40.397 52.935 41.586 50.528C41.798 50.1 42.031 49.672 42.281 49.258C45.44 44.027 50.793 40.903 56.873 40.903C58.352 40.903 60.063 41.101 61.063 41.47V39.634C60.063 39.3 58.347 39.128 56.873 39.128C50.166 39.128 44.164 42.572 40.682 48.34C40.406 48.797 40.188 49.2689 39.955 49.7419C38.643 52.3949 38 55.221 38 58.144C38 68.575 46.541 77.063 57.025 77.063C61.636 77.063 65.79 75.557 69.084 72.698C72.686 76.118 75.883 77.468 80.257 77.468C86.142 77.468 89.924 74.8 91.899 73.282C94.881 75.753 98.608 77.055 102.714 77.055C113.021 77.055 121.73 68.045 121.73 57.379C121.73 46.971 113.438 38.139 103.459 37.719C102.316 28.28 94.18 21 84.587 21C81.273 21 77.994 21.881 75.105 23.548C74.586 23.847 74.085 24.167 73.614 24.502C68.579 28.07 65.571 34.757 65.571 40.903C65.571 40.93 65.574 40.903 65.574 40.93" fill="black"/>
<path d="M63.8571 88.086C64.6822 88.086 65.351 87.4171 65.351 86.592C65.351 85.7669 64.6822 85.098 63.8571 85.098C63.0319 85.098 62.363 85.7669 62.363 86.592C62.363 87.4171 63.0319 88.086 63.8571 88.086Z" fill="black"/>
<path d="M79.858 88.086C80.6831 88.086 81.352 87.4171 81.352 86.592C81.352 85.7669 80.6831 85.098 79.858 85.098C79.0329 85.098 78.364 85.7669 78.364 86.592C78.364 87.4171 79.0329 88.086 79.858 88.086Z" fill="black"/>
<path d="M95.859 88.086C96.6841 88.086 97.353 87.4171 97.353 86.592C97.353 85.7669 96.6841 85.098 95.859 85.098C95.0339 85.098 94.365 85.7669 94.365 86.592C94.365 87.4171 95.0339 88.086 95.859 88.086Z" fill="black"/>
<path d="M70.8571 94.087C71.6822 94.087 72.351 93.4181 72.351 92.593C72.351 91.7678 71.6822 91.099 70.8571 91.099C70.0319 91.099 69.363 91.7678 69.363 92.593C69.363 93.4181 70.0319 94.087 70.8571 94.087Z" fill="black"/>
<path d="M85.858 94.087C86.6831 94.087 87.352 93.4181 87.352 92.593C87.352 91.7678 86.6831 91.099 85.858 91.099C85.0329 91.099 84.364 91.7678 84.364 92.593C84.364 93.4181 85.0329 94.087 85.858 94.087Z" fill="black"/>
<path d="M60.8561 99.088C61.6812 99.088 62.3501 98.4191 62.3501 97.594C62.3501 96.7689 61.6812 96.1 60.8561 96.1C60.031 96.1 59.3621 96.7689 59.3621 97.594C59.3621 98.4191 60.031 99.088 60.8561 99.088Z" fill="black"/>
<path d="M76.8571 99.088C77.6822 99.088 78.351 98.4191 78.351 97.594C78.351 96.7689 77.6822 96.1 76.8571 96.1C76.0319 96.1 75.363 96.7689 75.363 97.594C75.363 98.4191 76.0319 99.088 76.8571 99.088Z" fill="black"/>
<path d="M55.8541 94.087C56.6792 94.087 57.3481 93.4181 57.3481 92.593C57.3481 91.7678 56.6792 91.099 55.8541 91.099C55.029 91.099 54.3601 91.7678 54.3601 92.593C54.3601 93.4181 55.029 94.087 55.8541 94.087Z" fill="black"/>
</svg>
