<svg  viewBox="0 0 160 120" fill="none" xmlns="http://www.w3.org/2000/svg">
<path d="M53.0902 94.21C52.9412 94.21 52.7892 94.177 52.6472 94.106C52.1522 93.86 51.9502 93.26 52.1952 92.766L56.9322 83.214C57.1782 82.72 57.7772 82.518 58.2722 82.763C58.7672 83.008 58.9692 83.608 58.7242 84.103L53.9872 93.654C53.8122 94.006 53.4582 94.21 53.0902 94.21Z" fill="black"/>
<path d="M57.807 100.985C57.658 100.985 57.507 100.952 57.364 100.881C56.869 100.636 56.667 100.036 56.912 99.541L62.648 87.989C62.894 87.494 63.493 87.293 63.989 87.537C64.483 87.783 64.685 88.383 64.44 88.878L58.704 100.43C58.529 100.781 58.175 100.985 57.807 100.985Z" fill="black"/>
<path d="M89.9591 100.985C89.8101 100.985 89.6591 100.952 89.5161 100.881C89.0211 100.636 88.8191 100.035 89.0641 99.541L94.8011 87.989C95.0461 87.494 95.6461 87.293 96.1411 87.537C96.6361 87.783 96.8381 88.384 96.5931 88.878L90.8561 100.43C90.6811 100.781 90.3271 100.985 89.9591 100.985Z" fill="black"/>
<path d="M101.155 94.21C101.006 94.21 100.854 94.177 100.712 94.106C100.217 93.86 100.015 93.26 100.26 92.766L104.997 83.214C105.243 82.72 105.842 82.518 106.337 82.763C106.832 83.008 107.034 83.608 106.789 84.103L102.052 93.654C101.877 94.006 101.523 94.21 101.155 94.21Z" fill="black"/>
<path d="M103.458 36.719C102.316 27.28 94.1791 20 84.5861 20C81.2721 20 77.9931 20.881 75.1041 22.549C74.5851 22.847 74.0831 23.168 73.6131 23.502C68.5771 27.07 65.5701 33.757 65.5701 39.903C65.5701 39.931 65.5721 39.903 65.5731 39.931L67.3451 39.903C67.3451 34.332 70.0721 28.186 74.6391 24.95C75.0651 24.648 75.5191 24.357 75.9911 24.086C78.6101 22.574 81.5831 21.775 84.5861 21.775C93.5291 21.775 101.076 28.753 101.768 37.661L101.877 38.508L102.722 38.478C112.065 38.482 119.955 46.678 119.955 56.379C119.955 66.083 112.06 74.279 102.715 74.279C98.7921 74.279 95.8761 73.208 93.3341 71.333L93.0641 71.541L92.0641 72.406C95.0191 74.792 98.6821 76.054 102.714 76.054C113.021 76.054 121.73 67.044 121.73 56.378C121.73 45.971 113.438 37.139 103.458 36.719Z" fill="black"/>
<path d="M68.497 69.842C65.446 72.754 61.482 74.29 57.036 74.29C47.529 74.29 39.795 66.598 39.795 57.147C39.795 54.5 40.398 51.936 41.587 49.528C41.799 49.099 42.033 48.672 42.283 48.258C45.442 43.026 50.795 39.903 56.874 39.903C58.353 39.903 60.064 40.101 61.064 40.47V38.634C60.064 38.3 58.349 38.128 56.874 38.128C50.168 38.128 44.166 41.572 40.683 47.34C40.407 47.797 40.189 48.269 39.956 48.742C38.645 51.395 38 54.222 38 57.144C38 67.575 46.541 76.062 57.026 76.062C61.628 76.062 65.773 74.56 69.064 71.712L68.497 69.842Z" fill="black"/>
<path d="M83.281 59.036L70.361 79.67C70.232 79.859 70.372 80.114 70.601 80.105L80.182 79.683C80.385 79.674 80.529 79.879 80.452 80.067L74.36 97.093C74.233 97.4 74.653 97.63 74.844 97.358L88.86 75.166C88.99 74.982 88.858 74.729 88.633 74.729H79.549C79.365 74.729 79.233 74.556 79.281 74.38L83.779 59.266C83.858 58.963 83.458 58.78 83.281 59.036Z" stroke="black" stroke-width="2" stroke-miterlimit="10"/>
</svg>
